<?xml version="1.0" encoding="UTF-8"?>
<svg width="80px" height="80px" viewBox="0 0 80 80" version="1.1" xmlns="http://www.w3.org/2000/svg" xmlns:xlink="http://www.w3.org/1999/xlink">
    <title>icon/added</title>
    <desc>Created with Sketch.</desc>
    <defs>
        <filter x="-9.7%" y="-6.9%" width="119.4%" height="119.4%" filterUnits="objectBoundingBox" id="filter-1">
            <feOffset dx="0" dy="2" in="SourceAlpha" result="shadowOffsetOuter1"></feOffset>
            <feGaussianBlur stdDeviation="2" in="shadowOffsetOuter1" result="shadowBlurOuter1"></feGaussianBlur>
            <feColorMatrix values="0 0 0 0 0   0 0 0 0 0   0 0 0 0 0  0 0 0 0.26 0" type="matrix" in="shadowBlurOuter1" result="shadowMatrixOuter1"></feColorMatrix>
            <feMerge>
                <feMergeNode in="shadowMatrixOuter1"></feMergeNode>
                <feMergeNode in="SourceGraphic"></feMergeNode>
            </feMerge>
        </filter>
    </defs>
    <g id="caseReportForm" stroke="none" stroke-width="1" fill="none" fill-rule="evenodd">
        <g id="adhoc_account_confirmation" transform="translate(-600.000000, -224.000000)" fill="#FFFFFF">
            <g id="Group" transform="translate(430.000000, 144.000000)">
                <g id="icon/added" filter="url(#filter-1)" transform="translate(174.000000, 82.000000)">
                    <path d="M36,0.0166956522 C16.1613913,0.0166956522 0.0166956522,16.1613913 0.0166956522,36 C0.0166956522,55.8386087 16.1613913,71.9833043 36,71.9833043 C55.8386087,71.9833043 71.9833043,55.8386087 71.9833043,36 C71.9833043,16.1613913 55.8386087,0.0166956522 36,0.0166956522 L36,0.0166956522 Z M36,69.5833043 C17.4824348,69.5833043 2.41669565,54.5175652 2.41669565,36 C2.41669565,17.4824348 17.4824348,2.41669565 36,2.41669565 C54.5175652,2.41669565 69.5833043,17.4824348 69.5833043,36 C69.5833043,54.5175652 54.5175652,69.5833043 36,69.5833043 L36,69.5833043 Z" id="Fill-1"></path>
                    <polygon id="Fill-2" points="28.6789565 48.8107826 14.9311304 34.7196522 13.0643478 36.5426087 28.6549565 52.5245217 58.9283478 22.2511304 57.0813913 20.4093913"></polygon>
                </g>
            </g>
        </g>
    </g>
</svg>