<?xml version="1.0" encoding="UTF-8"?>
<svg width="84px" height="84px" viewBox="0 0 84 84" version="1.1" xmlns="http://www.w3.org/2000/svg" xmlns:xlink="http://www.w3.org/1999/xlink">
    <!-- Generator: sketchtool 51.3 (57544) - http://www.bohemiancoding.com/sketch -->
    <title>FD12F60C-A04C-4201-AB9B-6C29F84BAF97</title>
    <desc>Created with sketchtool.</desc>
    <defs></defs>
    <g id="IntroToCommunityFeatures" stroke="none" stroke-width="1" fill="none" fill-rule="evenodd">
        <g id="benefitsIntro-009.2" transform="translate(-798.000000, -370.000000)" fill="#32CE80" fill-rule="nonzero">
            <path d="M840,454 C816.804041,454 798,435.19596 798,412 C798,388.80404 816.804041,370 840,370 C863.195959,370 882,388.80404 882,412 C882,435.19596 863.195959,454 840,454 Z M834.616042,418.440117 L825.199836,409.023911 C823.781538,407.605613 821.482022,407.605613 820.063724,409.023911 C818.645425,410.442209 818.645425,412.741725 820.063724,414.160023 L832.047986,426.144285 C833.466284,427.562584 835.7658,427.562584 837.184098,426.144285 L857.728548,405.599836 C859.146846,404.181538 859.146846,401.882022 857.728548,400.463724 C856.310249,399.045425 854.010734,399.045425 852.592435,400.463724 L834.616042,418.440117 Z" id="checkYes"></path>
        </g>
    </g>
</svg>