<?xml version="1.0" encoding="UTF-8" standalone="no"?>
<svg width="168px" height="145px" viewBox="0 0 168 145" version="1.1" xmlns="http://www.w3.org/2000/svg" xmlns:xlink="http://www.w3.org/1999/xlink">
    <!-- Generator: Sketch 47 (45396) - http://www.bohemiancoding.com/sketch -->
    <title>errorImage</title>
    <desc>Created with Sketch.</desc>
    <defs></defs>
    <g id="styleGuide" stroke="none" stroke-width="1" fill="none" fill-rule="evenodd">
        <g id="Error-Handling_Full-Page_404" transform="translate(-556.000000, -170.000000)" fill="#9E9E9E">
            <g id="errorImage" transform="translate(556.000000, 170.000000)">
                <path d="M84.0005746,0 C79.4888625,0 75.3276563,2.31718973 73.0234052,6.17891912 L1.73098143,125.776176 C-0.573269615,129.645511 -0.580715,134.443014 1.73098143,138.312348 C4.04267785,142.181682 8.24130579,144.506096 12.7677177,144.491267 L155.232286,144.491267 C159.758889,144.513549 163.957322,142.181682 166.269019,138.312348 C168.580715,134.443014 168.57327,129.645511 166.269019,125.776176 L94.9765986,6.17891912 C92.6723476,2.31718973 88.5111413,0 83.9994292,0 L84.0005746,0 Z M84.0005746,7.60482353 C85.7082977,7.60482353 87.6024226,8.68168556 88.4153058,10.0406485 L159.707726,129.637906 C160.520571,131.004398 160.520571,133.024334 159.707726,134.390921 C158.894881,135.757507 156.948543,136.893668 155.233241,136.886253 L12.7686723,136.886253 C11.0534848,136.886253 9.10707037,135.757412 8.29418711,134.390921 C7.48130767,133.024429 7.48134585,131.004493 8.29418711,129.637906 L79.5866071,10.0406485 C80.3994522,8.6815905 82.2936725,7.60482353 84.0013383,7.60482353 L84.0005746,7.60482353 Z M84.0005746,39.9253236 C78.7282879,39.9253236 74.4552099,44.1807927 74.4552099,49.431353 L76.3642829,83.6530589 C76.3642829,87.856435 79.7798053,91.2578824 84.0005746,91.2578824 C88.221344,91.2578824 91.6368664,87.856435 91.6368664,83.6530589 L93.5459393,49.431353 C93.5459393,44.1807927 89.2728614,39.9253236 84.0005746,39.9253236 Z M84.0005746,96.9615001 C77.6767705,96.9615001 72.546137,102.070991 72.546137,108.368735 C72.546137,114.66648 77.6767705,119.775971 84.0005746,119.775971 C90.3243788,119.775971 95.4550123,114.66648 95.4550123,108.368735 C95.4550123,102.070991 90.3243788,96.9615001 84.0005746,96.9615001 Z" id="Page-1"></path>
            </g>
        </g>
    </g>
</svg>