<?xml version="1.0" encoding="UTF-8" standalone="no"?>
<svg width="91px" height="89px" viewBox="0 0 91 89" version="1.1" xmlns="http://www.w3.org/2000/svg" xmlns:xlink="http://www.w3.org/1999/xlink">
    <!-- Generator: Sketch 46.2 (44496) - http://www.bohemiancoding.com/sketch -->
    <title>partyHat-Icon</title>
    <desc>Created with Sketch.</desc>
    <defs></defs>
    <g id="caseReportForm" stroke="none" stroke-width="1" fill="none" fill-rule="evenodd">
        <g id="crf_complete_transitionForNoResponse" transform="translate(-59.000000, -81.000000)" fill-rule="nonzero" fill="#FFFFFF">
            <g id="partyHat-Icon" transform="translate(59.000000, 81.000000)">
                <path d="M2.4531,5.609 C2.4531,8.277 4.625,10.4488 7.2929,10.4488 C9.9608,10.4488 12.1327,8.2769 12.1327,5.609 C12.1327,2.9411 9.9608,0.7692 7.2929,0.7692 C4.625,0.7692 2.4531,2.9411 2.4531,5.609 L2.4531,5.609 Z M7.2929,2.7692 C8.8593,2.7692 10.1327,4.0426 10.1327,5.609 C10.1327,7.1754 8.8593,8.4488 7.2929,8.4488 C5.7265,8.4488 4.4531,7.1754 4.4531,5.609 C4.4531,4.0426 5.7265,2.7692 7.2929,2.7692 Z" id="Shape"></path>
                <path d="M16.32,50.086 C18.988,50.086 21.1598,47.9141 21.1598,45.2462 C21.1598,42.5782 18.9879,40.4064 16.32,40.4064 C13.652,40.4064 11.4802,42.5783 11.4802,45.2462 C11.4802,47.9142 13.6521,50.086 16.32,50.086 Z M16.32,42.4063 C17.8864,42.4063 19.1598,43.6797 19.1598,45.2461 C19.1598,46.8125 17.8864,48.0859 16.32,48.0859 C14.7536,48.0859 13.4802,46.8125 13.4802,45.2461 C13.4802,43.6797 14.7575,42.4063 16.32,42.4063 Z" id="Shape"></path>
                <path d="M71.547,69.375 C74.215,69.375 76.3868,67.2031 76.3868,64.5352 C76.3868,61.8672 74.2149,59.6954 71.547,59.6954 C68.8791,59.6954 66.7072,61.8673 66.7072,64.5352 C66.7072,67.2032 68.8791,69.375 71.547,69.375 Z M71.547,61.6953 C73.1134,61.6953 74.3868,62.9687 74.3868,64.5351 C74.3868,66.1015 73.1134,67.3749 71.547,67.3749 C69.9806,67.3749 68.7072,66.1015 68.7072,64.5351 C68.7072,62.9687 69.9806,61.6953 71.547,61.6953 Z" id="Shape"></path>
                <path d="M5.4531,85.336 C8.1211,85.336 10.2929,83.1641 10.2929,80.4962 C10.2929,77.8282 8.121,75.6564 5.4531,75.6564 C2.7852,75.6564 0.6133,77.8283 0.6133,80.4962 C0.617207,83.1642 2.7852,85.336 5.4531,85.336 Z M5.4531,77.6563 C7.0195,77.6563 8.2929,78.9297 8.2929,80.4961 C8.2929,82.0625 7.0195,83.3359 5.4531,83.3359 C3.8867,83.3359 2.6133,82.0625 2.6133,80.4961 C2.617207,78.9297 3.8906,77.6563 5.4531,77.6563 Z" id="Shape"></path>
                <path d="M81.398,42.152 C84.066,42.152 86.2378,39.9801 86.2378,37.3122 C86.2378,34.6443 84.0659,32.4724 81.398,32.4724 C78.73,32.4724 76.5582,34.6443 76.5582,37.3122 C76.5582,39.9801 78.7301,42.152 81.398,42.152 Z M81.398,34.4723 C82.9644,34.4723 84.2378,35.7457 84.2378,37.3121 C84.2378,38.8785 82.9644,40.1519 81.398,40.1519 C79.8316,40.1519 78.5582,38.8785 78.5582,37.3121 C78.5582,35.7457 79.8316,34.4723 81.398,34.4723 Z" id="Shape"></path>
                <path d="M3.6562,31.668 C3.91401,31.668 4.16792,31.570343 4.36323,31.37503 C5.68743,30.05083 6.84763,29.98053 8.31633,29.89453 C9.90613,29.80078 11.70303,29.69141 13.56633,27.83203 C15.42963,25.96873 15.53513,24.17183 15.62883,22.58203 C15.714768,21.11323 15.78508,19.95313 17.10933,18.62893 C18.43353,17.30473 19.59373,17.23443 21.06243,17.14843 C22.64833,17.05468 24.44913,16.94921 26.30853,15.08593 C28.16793,13.22263 28.27733,11.42573 28.37103,9.83983 C28.460874,8.37103 28.52728,7.21093 29.85153,5.88673 C31.17573,4.56253 32.33593,4.49223 33.80463,4.40623 C35.39053,4.31248 37.19133,4.20701 39.05073,2.34373 C39.44135,1.95311 39.44135,1.32033 39.05073,0.92963 C38.66011,0.539 38.02733,0.539 37.63663,0.92963 C36.31243,2.25383 35.15223,2.32413 33.68353,2.41013 C32.09763,2.50388 30.29683,2.60935 28.43743,4.47263 C26.57803,6.33593 26.46863,8.13283 26.37493,9.71873 C26.285086,11.18753 26.21868,12.34763 24.89443,13.67183 C23.57018,14.99603 22.41003,15.06633 20.94133,15.15233 C19.35543,15.24608 17.55463,15.35155 15.69523,17.21483 C13.83193,19.07813 13.72643,20.87503 13.63273,22.46483 C13.546793,23.93363 13.47648,25.09373 12.15223,26.41793 C10.82803,27.74213 9.66783,27.81243 8.19913,27.89843 C6.60933,27.99218 4.81243,28.10155 2.94913,29.96093 C2.55851,30.35155 2.55851,30.98433 2.94913,31.37503 C3.14444,31.57034 3.39835,31.668 3.65616,31.668 L3.6562,31.668 Z" id="Shape"></path>
                <path d="M90.234,70.555 C90.194937,70.484687 90.159781,70.41437 90.10119,70.35578 C89.71057,69.96516 89.07779,69.96516 88.68709,70.35578 C87.40589,71.63698 87.76131,73.21518 88.04647,74.48468 C88.17147,75.03546 88.24959,75.45343 88.26522,75.79328 C88.280845,76.21125 88.194907,76.50812 87.94491,76.75812 C87.61288,77.08625 87.21444,77.13703 86.55431,77.03546 C86.3004,76.996398 86.01134,76.937804 85.66759,76.85968 C84.40199,76.57452 82.81989,76.21906 81.53869,77.5003 C80.39419,78.6487 80.55432,80.0276 80.80432,81.2112 C80.83557,81.35182 80.86682,81.49245 80.89807,81.62917 C81.17541,82.85967 81.24963,83.44947 80.7926,83.90647 C80.33557,84.36347 79.7496,84.28928 78.5153,84.01194 C78.12468,83.922096 77.69889,83.83225 77.2653,83.78147 C76.29655,83.66819 75.2692,83.765845 74.3864,84.65256 C73.99578,85.04318 73.99578,85.67596 74.3864,86.06666 C74.58171,86.26197 74.83562,86.35963 75.09343,86.35963 C75.35124,86.35963 75.60515,86.261974 75.80046,86.06666 C76.2614,85.60963 76.84346,85.68385 78.07776,85.96119 C79.34726,86.24635 80.92546,86.60181 82.20666,85.31666 C83.49186,84.03146 83.13635,82.45336 82.85119,81.18386 C82.72619,80.63308 82.64807,80.21511 82.63244,79.87526 C82.616816,79.45729 82.702753,79.15651 82.95666,78.90651 C83.28869,78.57839 83.69104,78.5276 84.35116,78.62917 C84.60507,78.668233 84.89022,78.726826 85.23007,78.80495 C86.49567,79.09011 88.07777,79.44557 89.35897,78.16432 C90.50347,77.01982 90.34335,75.64482 90.09335,74.45732 C90.0621,74.31279 90.03085,74.17216 89.9996,74.03544 C89.72226,72.80494 89.64804,72.21904 90.10507,71.76204 C90.43319,71.43782 90.46445,70.93782 90.23398,70.55504 L90.234,70.555 Z" id="Shape"></path>
                <path d="M79.672,11.008 C79.1095,11.56659 78.547,11.71894 77.8009,11.72284 C77.47278,11.72284 77.11731,11.699403 76.7032,11.66034 C75.3399,11.53534 73.6446,11.383 72.1368,12.89084 C70.7345,14.29314 70.7696,15.85564 70.879,17.16034 C70.886813,17.257996 70.894625,17.35956 70.902438,17.45722 C71.027438,18.81272 71.054778,19.62132 70.250098,20.42992 C69.441508,21.23461 68.636798,21.20336 67.277398,21.08226 C66.867238,21.043198 66.425838,21.011948 65.972698,21.011948 C64.914098,21.01976 63.769598,21.254138 62.710998,22.312748 C62.320368,22.703368 62.320368,23.336148 62.710998,23.726848 C62.906308,23.922158 63.160218,24.019818 63.418028,24.019818 C63.675838,24.019818 63.929748,23.922162 64.125058,23.726848 C64.933648,22.922158 65.738358,22.953408 67.097758,23.074508 C68.457158,23.199508 70.156358,23.355758 71.664158,21.844008 C73.171958,20.336208 73.019658,18.640908 72.894658,17.277608 C72.832158,16.601828 72.797002,16.066708 72.871221,15.594008 C72.949346,15.117448 73.140751,14.711198 73.547001,14.304908 C74.109501,13.742408 74.675901,13.590068 75.422001,13.590068 C75.746221,13.590068 76.105591,13.613505 76.515801,13.652568 C77.879101,13.777568 79.574401,13.929908 81.082201,12.422068 C82.480601,11.023668 82.445501,9.465068 82.336101,8.156468 C82.328288,8.054908 82.320475,7.953348 82.308757,7.855688 C82.183757,6.500188 82.152507,5.695488 82.957197,4.886888 C83.761887,4.082198 84.566597,4.113448 85.925997,4.238448 C86.336157,4.273605 86.777557,4.308761 87.234597,4.308761 C88.293197,4.300948 89.437697,4.066571 90.492397,3.011861 C90.883017,2.621241 90.883017,1.988461 90.492397,1.597761 C90.101767,1.207141 89.468997,1.207141 89.078297,1.597761 C88.273607,2.402451 87.464997,2.371201 86.109497,2.246201 C84.746197,2.121201 83.050897,1.964951 81.546997,3.472801 C80.039197,4.980601 80.195397,6.675901 80.320397,8.035301 C80.382897,8.711081 80.421957,9.250101 80.343835,9.718901 C80.269616,10.199371 80.074305,10.605621 79.671955,11.008001 L79.672,11.008 Z" id="Shape"></path>
                <path d="M46,37.855 C45.55078,37.855 45.14062,38.12453 44.9648,38.53859 L24.2848,86.45259 C24.13636,86.80025 24.16761,87.20259 24.37855,87.51899 C24.58949,87.8354 24.94105,88.0268 25.32386,88.0268 L42.73386,88.0268 L42.741673,88.0268 L42.749485,88.0268 L66.679485,88.030706 C67.058395,88.030706 67.413855,87.839296 67.624795,87.522896 C67.835735,87.206486 67.866985,86.804146 67.718545,86.456496 L47.034545,38.538496 C46.858765,38.124436 46.448605,37.854906 45.999345,37.854906 L46,37.855 Z M64.961,85.769 L46.039,85.769 L60.215,74.773 L64.961,85.769 Z M59.2891,72.632 L42.3511,85.769 L27.0391,85.769 L27.70316,84.2299 C27.707066,84.2299 27.710973,84.233806 27.710973,84.233806 C27.953163,84.233806 28.195343,84.155681 28.402383,83.995526 L55.222383,63.202526 L59.2891,72.632 Z M54.2969,61.062 L29.3559,80.398 L36.0473,64.894 L50.9613,53.328 L54.2969,61.062 Z M37.9019,60.59716 L45.9996,41.83916 L50.0348,51.18686 L37.9019,60.59716 Z" id="Shape"></path>
                <path d="M35.07,23.223 C34.95281,23.51206 34.96453,23.82066 35.077813,24.08628 C35.191093,24.3519 35.405933,24.57456 35.695003,24.69175 L43.050503,27.66445 L35.749703,30.76215 C35.175483,31.00434 34.905953,31.6684 35.152043,32.24265 C35.394233,32.81687 36.058293,33.0864 36.632543,32.84031 L43.933343,29.74261 L40.960643,37.10201 C40.843453,37.39107 40.855173,37.69967 40.968455,37.96529 C41.081737,38.23091 41.296575,38.45357 41.585645,38.57076 C42.163765,38.80514 42.823945,38.523886 43.058345,37.94576 L46.031045,30.59026 L49.128745,37.89106 C49.370935,38.46528 50.034995,38.73481 50.609245,38.48872 C51.183465,38.24653 51.452995,37.58247 51.206905,37.00822 L48.109205,29.70742 L55.464705,32.68012 C56.042825,32.91449 56.703005,32.633244 56.937405,32.05512 C57.171785,31.47699 56.89053,30.81682 56.312405,30.58242 L48.956905,27.60972 L56.257705,24.51202 C56.831925,24.26983 57.101455,23.60577 56.855365,23.03152 C56.613175,22.4573 55.949115,22.18777 55.374865,22.43386 L48.074065,25.53156 L51.046765,18.17606 C51.281145,17.59794 50.99989,16.93776 50.421765,16.70336 C49.84364,16.46896 49.183465,16.750235 48.949065,17.32836 L45.976365,24.68386 L42.878665,17.38306 C42.636475,16.80884 41.972415,16.53931 41.398165,16.7854 C40.823945,17.02759 40.554415,17.69165 40.800505,18.2659 L43.898205,25.5667 L36.538805,22.6019 C35.960685,22.36753 35.304405,22.644869 35.070005,23.22299 L35.07,23.223 Z" id="Shape"></path>
            </g>
        </g>
    </g>
</svg>