<?xml version="1.0" encoding="utf-8"?>
<!-- Generator: Adobe Illustrator 16.0.0, SVG Export Plug-In . SVG Version: 6.00 Build 0)  -->
<!DOCTYPE svg PUBLIC "-//W3C//DTD SVG 1.1//EN" "http://www.w3.org/Graphics/SVG/1.1/DTD/svg11.dtd">
<svg version="1.1" id="Layer_1" xmlns="http://www.w3.org/2000/svg" xmlns:xlink="http://www.w3.org/1999/xlink" x="0px" y="0px"
	 width="612px" height="792px" viewBox="0 0 612 792" enable-background="new 0 0 612 792" xml:space="preserve">
<g>
	<g>
		<path fill="#FFFFFF" d="M23.559,459.295c-2.271,0-4.184-1.555-4.662-3.825C5.51,389.608,14.714,323.268,45.194,263.622
			c1.195-2.391,4.064-3.228,6.455-2.032s3.227,4.064,2.032,6.455c-29.524,57.734-38.369,121.803-25.58,185.512
			c0.478,2.631-1.195,5.141-3.706,5.619C24.157,459.176,23.798,459.295,23.559,459.295z"/>
		<path fill="#FFFFFF" d="M73.403,231.827c-0.956,0-1.912-0.358-2.869-0.956c-2.151-1.554-2.629-4.542-1.076-6.694
			c43.39-59.407,106.98-100.167,179.178-114.75c64.068-12.91,128.734-4.542,187.305,24.145c2.391,1.195,3.348,4.064,2.152,6.455
			s-4.064,3.347-6.455,2.151c-56.538-27.731-119.173-35.859-181.209-23.309C180.623,132.974,119.064,172.3,77.109,229.794
			C76.272,231.109,74.838,231.827,73.403,231.827z"/>
		<path fill="#FFFFFF" d="M589.898,345.023c-2.271,0-4.184-1.554-4.662-3.825c-14.463-71.719-55.463-134.353-115.229-176.309
			c-2.151-1.554-2.629-4.542-1.195-6.694c1.555-2.151,4.543-2.629,6.694-1.195c61.917,43.39,104.231,108.176,119.173,182.285
			c0.478,2.63-1.195,5.14-3.706,5.618C590.496,345.023,590.257,345.023,589.898,345.023z"/>
	</g>
</g>
<g>
	<g>
		<path fill="#FFFFFF" d="M595.755,408.016L595.755,408.016c-2.749,0-4.781-2.271-4.781-4.9c0.358-20.679-1.435-41.478-5.618-61.917
			c-0.478-2.63,1.195-5.14,3.706-5.618c2.63-0.478,5.14,1.195,5.618,3.706c4.303,21.157,6.215,42.673,5.737,63.949
			C600.536,405.864,598.385,408.016,595.755,408.016z"/>
		<path fill="#FFFFFF" d="M26.428,471.606c-2.151,0-4.064-1.435-4.662-3.586c-0.957-4.063-1.913-8.367-2.75-12.551
			c-0.478-2.63,1.195-5.14,3.706-5.618c2.63-0.479,5.14,1.195,5.618,3.705c0.836,4.064,1.793,8.129,2.749,12.073
			c0.598,2.511-0.956,5.14-3.466,5.737C27.145,471.486,26.786,471.606,26.428,471.606z"/>
	</g>
</g>
<path fill="#FFFFFF" d="M232.141,681.264c-1.075,0-2.271-0.357-3.107-1.195c-2.032-1.793-2.151-4.781-0.479-6.693
	c31.915-36.338,55.582-80.086,68.372-126.464c13.507-48.649,15.181-98.733,5.14-148.577c-0.478-2.63,1.195-5.14,3.706-5.618
	c2.63-0.478,5.14,1.195,5.618,3.706c10.398,51.399,8.605,102.797-5.26,153c-13.268,47.813-37.652,92.875-70.404,130.289
	C234.771,680.785,233.456,681.264,232.141,681.264z"/>
<path fill="#FFFFFF" d="M194.728,668.475c-1.195,0-2.391-0.479-3.347-1.314c-1.912-1.793-1.912-4.902-0.119-6.814
	c26.895-27.611,47.573-59.766,61.678-95.625c0.956-2.51,3.705-3.705,6.216-2.748c2.51,0.955,3.705,3.705,2.749,6.215
	c-14.463,37.055-35.859,70.285-63.71,98.852C197.238,667.996,196.043,668.475,194.728,668.475z"/>
<path fill="#FFFFFF" d="M272.543,689.033c-1.076,0-2.032-0.357-2.988-0.955c-2.032-1.674-2.391-4.662-0.837-6.695
	c64.308-82.236,89.29-188.021,68.73-290.221l-0.598-2.629c-4.542-15.539-20.32-25.221-36.457-21.994
	c-15.659,3.107-26.297,17.571-25.222,33.11l0.837,3.945c8.009,39.923,7.77,80.086-0.598,119.531
	c-0.598,2.629-3.107,4.184-5.618,3.705c-2.629-0.598-4.184-3.107-3.705-5.618c7.889-36.696,8.367-73.989,1.435-111.044h-0.239
	l-0.956-4.543c-4.423-22.233,9.921-43.868,32.153-48.41c22.233-4.422,43.868,9.921,48.41,32.154l0.837,4.184h-0.119
	c19.603,103.633-6.216,210.495-71.36,293.807C275.411,688.436,273.977,689.033,272.543,689.033z"/>
<path fill="#FFFFFF" d="M160.661,651.381c-1.314,0-2.51-0.479-3.466-1.553c-1.793-1.914-1.674-4.902,0.238-6.814
	c58.69-54.984,87.378-135.189,76.62-214.559c-0.358-2.629,1.435-5.02,4.063-5.379c2.63-0.357,5.021,1.436,5.379,4.064
	c11.236,82.477-18.527,165.789-79.488,222.807C163.052,650.902,161.856,651.381,160.661,651.381z"/>
<path fill="#FFFFFF" d="M385.5,465.75c-2.63,0-4.781-2.152-4.781-4.781c-0.12-25.58-2.75-51.519-7.77-76.859l-0.718-3.347
	c-4.184-16.256-13.985-30.242-28.09-39.565c-15.061-10.041-33.11-13.507-50.801-9.921c-26.536,5.379-47.334,25.938-52.833,52.474
	c-0.598,2.629-3.107,4.303-5.617,3.706c-2.63-0.598-4.184-3.108-3.706-5.618c6.335-30.241,30.003-53.789,60.363-59.885
	c20.201-4.064,40.761,0,57.973,11.355c17.213,11.355,28.808,28.807,32.991,49.008l0.836,3.945h-0.119
	c4.781,24.743,7.172,49.844,7.172,74.827C390.281,463.598,388.129,465.63,385.5,465.75L385.5,465.75z"/>
<path fill="#FFFFFF" d="M315.933,690.945c-0.956,0-1.913-0.238-2.749-0.836c-2.152-1.434-2.75-4.422-1.195-6.693
	c36.098-52.834,59.048-114.033,66.22-177.266c0.358-2.629,2.63-4.541,5.26-4.184c2.63,0.359,4.542,2.631,4.184,5.26
	c-7.411,64.666-30.839,127.539-67.774,181.568C318.921,690.229,317.486,690.945,315.933,690.945z"/>
<path fill="#FFFFFF" d="M129.822,630.582c-1.315,0-2.63-0.598-3.586-1.672c-1.673-2.033-1.554-5.021,0.478-6.695
	c56.658-49.008,83.194-124.432,70.045-197.823h-0.119l-0.957-4.542c-12.312-61.32,27.373-121.205,88.692-133.517
	c10.28-2.032,20.799-2.75,31.198-1.913c2.629,0.239,4.542,2.51,4.422,5.14c-0.238,2.63-2.51,4.662-5.14,4.423
	c-9.563-0.717-19.125-0.12-28.567,1.793c-54.507,10.997-90.485,63.112-81.999,117.619h0.12l0.956,4.543
	c15.778,78.173-11.953,159.215-72.316,211.57C132.093,630.105,130.898,630.582,129.822,630.582z"/>
<path fill="#FFFFFF" d="M361.952,685.688c-0.837,0-1.674-0.24-2.391-0.719c-2.271-1.314-2.988-4.303-1.674-6.574
	c53.431-90.963,71.241-198.063,50.442-301.577l-0.717-3.347c-6.694-28.329-24.982-52.594-50.442-66.818
	c-2.271-1.315-3.108-4.184-1.793-6.455c1.314-2.271,4.184-3.108,6.454-1.793c28.927,16.137,49.367,44.107,55.941,76.619l0.717,3.825
	h-0.119c20.081,104.589,1.554,212.527-52.355,304.447C365.18,684.85,363.625,685.688,361.952,685.688z"/>
<path fill="#FFFFFF" d="M102.45,606.438c-1.435,0-2.75-0.598-3.706-1.793c-1.673-2.031-1.315-5.02,0.717-6.693
	c23.547-19.244,41.716-44.467,52.713-72.795c0.956-2.51,3.705-3.705,6.216-2.749c2.51,0.956,3.705,3.706,2.749,6.216
	c-11.595,29.883-30.839,56.418-55.582,76.738C104.481,606.078,103.406,606.438,102.45,606.438z"/>
<path fill="#FFFFFF" d="M451.601,542.607c-0.239,0-0.479,0-0.837-0.119c-2.63-0.479-4.423-2.869-3.944-5.498
	c9.084-55.463,8.128-111.762-3.108-167.344l-0.478-2.51c-16.376-74.109-89.409-121.922-164.116-106.861
	c-73.99,14.941-122.52,86.063-110.208,159.933h0.119l0.956,4.661c3.825,18.647,4.662,37.652,2.63,56.42
	c-0.239,2.629-2.63,4.541-5.259,4.303c-2.63-0.239-4.543-2.63-4.304-5.26c1.793-16.256,1.195-32.632-1.673-48.769h-0.12
	l-0.956-4.661c-16.256-80.684,36.218-159.694,116.901-175.951s159.574,36.218,175.95,116.901l0.598,3.108l0,0
	c10.877,55.701,11.714,112.121,2.63,167.703C455.903,540.935,453.871,542.607,451.601,542.607z"/>
<path fill="#FFFFFF" d="M410.362,671.82c-0.718,0-1.435-0.119-2.032-0.477c-2.391-1.195-3.347-4.064-2.151-6.336
	c13.028-26.775,23.548-54.746,31.197-83.434c0.718-2.51,3.347-4.063,5.857-3.346c2.51,0.717,4.063,3.346,3.347,5.857
	c-7.77,29.164-18.527,57.852-31.795,85.105C413.828,670.865,412.155,671.82,410.362,671.82z"/>
<path fill="#FFFFFF" d="M460.565,646.719c-0.598,0-1.195-0.119-1.674-0.357c-2.51-0.957-3.705-3.705-2.749-6.217
	c33.708-87.975,41.717-183.479,23.309-276.236l-0.239-1.435c-5.021-25.102-15.181-48.171-30.122-68.73
	c-1.554-2.151-1.075-5.14,1.076-6.693c2.151-1.554,5.14-1.076,6.693,1.076c15.42,21.157,25.938,44.944,31.438,70.643l0,0
	l0.358,1.793c19.125,94.908,10.997,192.803-23.429,282.93C464.391,645.523,462.478,646.719,460.565,646.719z"/>
<path fill="#FFFFFF" d="M421.239,262.427c-1.075,0-2.151-0.359-2.988-1.076c-40.999-33.588-94.31-46.856-146.306-36.338
	c-13.388,2.75-26.417,6.933-38.609,12.551c-2.391,1.076-5.259,0-6.335-2.391c-1.075-2.391,0-5.259,2.391-6.335
	c12.909-5.977,26.655-10.399,40.761-13.268c54.745-10.997,110.925,2.988,154.195,38.37c2.031,1.673,2.391,4.662,0.717,6.694
	C423.988,261.829,422.674,262.427,421.239,262.427z"/>
<path fill="#FFFFFF" d="M78.424,579.305c-1.435,0-2.749-0.598-3.706-1.793c-1.673-2.033-1.315-5.021,0.717-6.695
	c39.685-31.914,58.81-82.117,50.562-131.961l0,0l-0.956-4.781c-13.746-67.895,11.116-137.103,64.905-180.732
	c2.032-1.673,5.021-1.315,6.694,0.717c1.673,2.032,1.314,5.02-0.718,6.694c-49.725,40.401-73.392,103.753-62.515,166.626h0.12
	l0.956,4.781c11.117,54.984-9.204,110.925-53.072,146.187C80.575,578.945,79.5,579.305,78.424,579.305z"/>
<path fill="#FFFFFF" d="M58.104,549.302c-1.315,0-2.749-0.598-3.706-1.673c-1.673-2.033-1.434-5.021,0.598-6.694
	c28.09-23.786,41.478-60.722,35.262-96.82l-0.717-2.988c-2.271-11.476-3.705-23.309-4.184-35.022c-0.119-2.63,1.913-4.9,4.542-5.021
	c2.629-0.12,4.901,1.913,5.02,4.542c0.359,10.041,1.554,20.082,3.347,29.883l0.836,3.586c8.128,40.521-6.335,82.238-37.891,109.013
	C60.255,548.943,59.179,549.302,58.104,549.302z"/>
<path fill="#FFFFFF" d="M524.156,387.337c-2.271,0-4.423-1.673-4.781-4.064c-1.195-8.248-2.63-16.615-4.304-24.982l-0.598-2.869
	c-23.069-114.511-135.07-188.859-249.7-165.79c-42.673,8.606-81.162,29.763-111.164,61.08c-29.166,30.6-48.53,68.73-55.821,110.447
	c-0.479,2.629-2.869,4.303-5.499,3.944c-2.63-0.478-4.303-2.869-3.945-5.499c7.531-43.509,27.731-83.433,58.332-115.467
	c31.317-32.751,71.48-54.865,116.184-63.83c118.575-23.906,234.401,52.116,260.101,169.734l0,0l0.717,3.586
	c1.912,9.324,3.586,18.886,4.9,28.329c0.359,2.629-1.434,5.02-4.063,5.379C524.515,387.337,524.275,387.337,524.156,387.337z"/>
<path fill="#FFFFFF" d="M511.844,605.602c-0.358,0-0.836,0-1.195-0.121c-2.51-0.717-4.063-3.346-3.347-5.855
	c14.941-55.941,20.56-113.555,16.974-171.289c-0.119-2.629,1.793-4.9,4.423-5.02c2.63-0.12,4.9,1.793,5.021,4.422
	c3.705,58.81-2.152,117.38-17.332,174.277C515.789,604.285,513.876,605.602,511.844,605.602z"/>
<path fill="#FFFFFF" d="M41.011,515.713c-1.195,0-2.271-0.478-3.228-1.314c-1.913-1.793-2.032-4.781-0.239-6.813
	c14.225-15.301,20.56-36.457,17.213-57.018l-0.479-2.391C40.652,380.882,54.04,312.152,92.17,254.777
	c38.13-57.256,96.223-96.342,163.639-109.969c28.328-5.738,57.016-6.694,85.465-2.869c2.629,0.359,4.422,2.75,4.063,5.379
	c-0.358,2.63-2.749,4.423-5.379,4.064c-27.253-3.706-54.984-2.75-82.237,2.749c-64.905,13.148-120.966,50.681-157.542,105.905
	C64.2,314.184,51.051,378.97,63.004,442.799l0.717,3.467c4.9,24.266-2.271,49.605-19.125,67.774
	C43.64,515.235,42.325,515.713,41.011,515.713z"/>
<path fill="#FFFFFF" d="M561.688,537.946c-0.239,0-0.358,0-0.598,0c-2.63-0.358-4.423-2.749-4.184-5.379
	c7.53-60.124,5.379-120.847-6.335-180.731l-0.717-3.466c-17.811-88.095-81.999-159.813-167.583-187.306
	c-2.511-0.836-3.944-3.466-3.108-5.977c0.837-2.51,3.467-3.944,5.977-3.107c87.617,28.09,153.598,100.765,173.201,190.413l0,0
	l0.837,4.064c12.551,62.037,14.941,125.029,7.172,187.306C566.111,536.153,564.079,537.946,561.688,537.946z"/>
</svg>
