<?xml version="1.0" encoding="UTF-8"?>
<svg width="94px" height="94px" viewBox="0 0 94 94" version="1.1" xmlns="http://www.w3.org/2000/svg" xmlns:xlink="http://www.w3.org/1999/xlink">
    <!-- Generator: Sketch 50.2 (55047) - http://www.bohemiancoding.com/sketch -->
    <title>icon-touch-id-invert</title>
    <desc>Created with Sketch.</desc>
    <defs></defs>
    <g id="ADHOC-Mobile" stroke="none" stroke-width="1" fill="none" fill-rule="evenodd">
        <g id="bioID" transform="translate(-1568.000000, -1345.000000)" fill="#1976D2" fill-rule="nonzero">
            <g id="Group-15" transform="translate(119.000000, 991.000000)">
                <g id="Group-13" transform="translate(1308.000000, 0.000000)">
                    <g id="Group-5-Copy-2">
                        <g id="icon-touch-id-invert" transform="translate(141.000000, 354.000000)">
                            <g id="Group">
                                <path d="M1.84473005,56.9587245 C1.48229542,56.9587245 1.17699491,56.7101361 1.10070968,56.3472449 C-1.03575552,45.8182857 0.433134126,35.2129116 5.29751443,25.6776667 C5.4882275,25.295432 5.94609847,25.1616259 6.32768421,25.3528231 C6.70926995,25.5440204 6.8426893,26.0025102 6.65197623,26.3847449 C1.94016638,35.6143299 0.528570458,45.8566531 2.56959932,56.0414252 C2.64588455,56.4620272 2.37888625,56.8632857 1.97814941,56.9397007 C1.94016638,56.9397007 1.88287267,56.9587245 1.84473005,56.9587245 Z" id="Shape"></path>
                                <path d="M9.7994601,20.5947925 C9.64688964,20.5947925 9.49431919,20.5375612 9.34158913,20.4419626 C8.9983056,20.193534 8.92202037,19.7158605 9.16986757,19.3718333 C16.0945874,9.87479592 26.2430764,3.3587415 37.7653379,1.02744558 C47.9901121,-1.03639796 58.3103226,0.301343537 67.6578166,4.88736054 C68.0394024,5.07839796 68.1921324,5.53704762 68.0012598,5.91928231 C67.8103871,6.30151701 67.3526757,6.45434694 66.97109,6.26314966 C57.9480475,1.82996259 47.9519694,0.530588435 38.0514873,2.53688095 C26.9109711,4.7917619 17.0866146,11.0785714 10.39091,20.2697891 C10.2573311,20.4800102 10.0284754,20.5947925 9.7994601,20.5947925 Z" id="Shape"></path>
                                <path d="M92.2282037,38.6907517 C91.8657691,38.6907517 91.5604686,38.4423231 91.4841834,38.0792721 C89.1759966,26.6139898 82.6327029,16.6010714 73.0944958,9.89381973 C72.7512122,9.64539116 72.674927,9.16771769 72.9037827,8.82369048 C73.1519491,8.47982313 73.6288115,8.40340816 73.9720951,8.63265306 C83.8535857,15.5691497 90.606584,25.9260952 92.9912156,37.7734524 C93.0675008,38.1938946 92.8005025,38.5951531 92.3997657,38.671568 C92.3236401,38.6907517 92.2854975,38.6907517 92.2282037,38.6907517 Z" id="Shape"></path>
                            </g>
                            <g id="Group" transform="translate(0.957555, 37.088435)">
                                <path d="M92.205382,11.6726259 C91.7666621,11.6726259 91.4423701,11.3095748 91.4423701,10.8892925 C91.4995042,7.58346599 91.2133548,4.25845578 90.5457793,0.990996599 C90.4694941,0.570554422 90.7364924,0.169295918 91.1372292,0.0928809524 C91.5569576,0.0164659864 91.9575348,0.283918367 92.03382,0.685336735 C92.7205467,4.06757823 93.0256876,7.50721088 92.9494024,10.9084762 C92.9683939,11.3285986 92.6251104,11.6726259 92.205382,11.6726259 Z" id="Shape"></path>
                                <path d="M1.34504584,21.8383741 C1.00176231,21.8383741 0.6964618,21.6089694 0.601025467,21.265102 C0.448295416,20.6155748 0.295724958,19.9275204 0.16214601,19.2586497 C0.085860781,18.8382075 0.352859083,18.436949 0.753595925,18.360534 C1.17332428,18.2839592 1.57390153,18.5515714 1.65018676,18.9528299 C1.78360611,19.602517 1.93633616,20.2523639 2.08890662,20.8828673 C2.18434295,21.2842857 1.93633616,21.704568 1.53575891,21.8000068 C1.45947368,21.8191905 1.40217997,21.8383741 1.34504584,21.8383741 Z" id="Shape"></path>
                            </g>
                            <path d="M35.1328591,92.4435646 C34.9612971,92.4435646 34.7704244,92.3864932 34.6370051,92.2525272 C34.3127131,91.9658912 34.2937216,91.4882177 34.5605603,91.1825578 C39.6539559,85.3734218 43.4310323,78.3796939 45.4722207,70.9655238 C47.627837,63.1883027 47.8949949,55.1816769 46.2925263,47.2134184 C46.2162411,46.7929762 46.4832394,46.3917177 46.8839762,46.3153027 C47.3037046,46.2388878 47.7042818,46.5063401 47.7805671,46.9077585 C49.4400102,55.1246054 49.1538608,63.3412925 46.9411104,71.3669422 C44.8236367,79.010517 40.9321324,86.2143061 35.7051579,92.1954558 C35.5525874,92.3669898 35.3427233,92.4435646 35.1328591,92.4435646 Z" id="Shape"></path>
                            <path d="M29.1620238,90.3990646 C28.9713107,90.3990646 28.780438,90.3224898 28.6278676,90.1890034 C28.3227267,89.9023673 28.3227267,89.4053503 28.6088761,89.0996905 C32.9011171,84.6856871 36.2011715,79.5452619 38.4522241,73.8127007 C38.6047946,73.4114422 39.0435144,73.2204048 39.4442513,73.3733946 C39.8448285,73.5260646 40.0355416,73.9656905 39.8829711,74.366949 C37.5747844,80.2907075 34.1601426,85.6029864 29.7153311,90.1698197 C29.562601,90.3224898 29.3718879,90.3990646 29.1620238,90.3990646 Z" id="Shape"></path>
                            <path d="M41.5807165,93.6855476 C41.4089949,93.6855476 41.2564244,93.6284762 41.103854,93.5328776 C40.779562,93.2652653 40.7222683,92.7875918 40.970275,92.4625884 C51.2333514,79.316017 55.220292,62.4048095 51.9390696,46.0667143 L51.8436333,45.646432 C51.118764,43.1623061 48.6007131,41.6145034 46.0253684,42.1303844 C43.526309,42.6270816 41.8285637,44.9393537 42.0001256,47.4234796 L42.1337046,48.0541429 C43.4118812,54.4363912 43.3737385,60.8570068 42.0382683,67.1628401 C41.9428319,67.5831224 41.5424143,67.8317109 41.1416774,67.7551361 C40.7221087,67.6595374 40.4739423,67.2584388 40.5503871,66.8570204 C41.8094126,60.9906531 41.8856978,55.0288469 40.7794024,49.1050884 L40.7412598,49.1050884 L40.5886893,48.3788265 C39.8828115,44.8245714 42.1720068,41.365915 45.7200679,40.6398129 C49.2682886,39.9328946 52.721073,42.2258231 53.4459423,45.7800782 L53.5795212,46.448949 L53.5605297,46.448949 C56.6890221,63.0161293 52.5685025,80.0995102 42.1720068,93.4180952 C42.0384278,93.5901088 41.8095722,93.6855476 41.5807165,93.6855476 Z" id="Shape"></path>
                            <path d="M23.7251851,87.6663503 C23.5154805,87.6663503 23.3246078,87.5897755 23.1720374,87.4180816 C22.8858879,87.112102 22.9048795,86.6344286 23.2100204,86.3287687 C32.5765059,77.5388095 37.1548964,64.7169218 35.438,52.0285204 C35.3808659,51.6082381 35.6670153,51.2260034 36.0864244,51.1686122 C36.5061528,51.1115408 36.8877385,51.3981769 36.9448727,51.8182993 C38.7380543,65.003398 33.9881019,78.321983 24.2591817,87.4371054 C24.1067708,87.5897755 23.9158981,87.6663503 23.7251851,87.6663503 Z" id="Shape"></path>
                            <path d="M59.6078098,57.9906463 C59.1880815,57.9906463 58.844798,57.646619 58.844798,57.2263367 C58.8256469,53.137017 58.4059185,48.9903061 57.604764,44.9393537 L57.4901766,44.4042891 C56.8224414,41.8055408 55.258275,39.5696837 53.0072224,38.0792721 C50.6035993,36.4740782 47.7231138,35.9199898 44.8997623,36.4932619 C40.6648149,37.3531701 37.3456095,40.6398129 36.4680102,44.8819626 C36.3725739,45.3022449 35.9721562,45.5698571 35.5715789,45.4744184 C35.1518506,45.3788197 34.9038438,44.9775612 34.980129,44.5763027 C35.9911477,39.7418571 39.7683837,35.977381 44.6136129,35.0028503 C47.8375416,34.3531633 51.118764,35.0028503 53.8656706,36.8181054 C56.6127368,38.6333605 58.4632122,41.4233061 59.1307878,44.6527177 L59.2642071,45.283381 L59.2452156,45.283381 C60.0082275,49.2388946 60.3898132,53.2516395 60.3898132,57.2455204 C60.3708217,57.646619 60.0273786,57.9714626 59.6078098,57.9906463 Z" id="Shape"></path>
                            <path d="M48.5054363,93.9912075 C48.3528659,93.9912075 48.2001358,93.9531599 48.0667165,93.8575612 C47.7232733,93.6283163 47.627837,93.1506429 47.8760034,92.7875918 C53.6369745,84.3413401 57.2996231,74.5578265 58.4442207,64.4491497 C58.5013548,64.0288673 58.8639491,63.7232075 59.2836774,63.7802789 C59.7034058,63.8376701 60.0085467,64.200881 59.9514126,64.6211633 C58.7686723,74.9589252 55.0297385,85.010051 49.1351885,93.6473401 C48.9822988,93.8767449 48.7532835,93.9912075 48.5054363,93.9912075 Z" id="Shape"></path>
                            <path d="M18.803511,84.3413401 C18.5936469,84.3413401 18.3837827,84.2457415 18.2312122,84.0740476 C17.9642139,83.7490442 17.9832054,83.2713707 18.3074975,83.0037585 C27.349691,75.1691463 31.5846384,63.111568 29.4861562,51.3789932 L29.4671647,51.3789932 L29.3144346,50.6528912 C27.3495314,40.850034 33.682961,31.2765816 43.4690153,29.3083367 C45.1096265,28.9834932 46.7883803,28.8687109 48.447983,29.002517 C48.8675518,29.0407245 49.1728523,29.4037755 49.1537012,29.8242177 C49.1157182,30.2446599 48.7531239,30.5695034 48.3333956,30.5312959 C46.8072122,30.4166735 45.2811885,30.5121122 43.7743158,30.817932 C35.0754058,32.5759558 29.3335857,40.9072653 30.6878879,49.6209694 L30.707039,49.6209694 L30.8596095,50.3472313 C33.3776604,62.8442755 28.952,75.7999694 19.3185161,84.1696463 C19.1659457,84.265085 18.9752326,84.3413401 18.803511,84.3413401 Z" id="Shape"></path>
                            <path d="M55.849725,93.1508027 C55.716146,93.1508027 55.5825671,93.1124354 55.4681392,93.0358605 C55.1057046,92.8257993 54.9912767,92.347966 55.2009813,91.984915 C63.7281698,77.4432109 66.5705127,60.3217823 63.2511477,43.7736259 L63.1367199,43.2385612 C62.0684075,38.7097755 59.1497793,34.8306769 55.0865535,32.5567721 C54.7241188,32.346551 54.5905399,31.8879014 54.8004041,31.5248503 C55.0101087,31.1617993 55.4681392,31.0279932 55.8304143,31.2382143 C60.4469474,33.8179388 63.7090187,38.2893333 64.75818,43.4868299 L64.8726078,44.0983095 L64.8536163,44.0983095 C68.0583939,60.8183197 65.1016231,78.0737143 56.4981494,92.7684082 C56.3648896,93.0168367 56.1167233,93.1508027 55.849725,93.1508027 Z" id="Shape"></path>
                            <path d="M14.4351443,80.481585 C14.206129,80.481585 13.9962649,80.3859864 13.8436944,80.194949 C13.5766961,79.8702653 13.6338302,79.392432 13.9581222,79.1249796 C17.7160475,76.0485578 20.6156842,72.0163095 22.3707233,67.4876837 C22.5232937,67.0864252 22.9620136,66.8953878 23.3627504,67.0482177 C23.7633277,67.2010476 23.9540407,67.6406735 23.8014703,68.041932 C21.9509949,72.8191463 18.8797963,77.0611361 14.9309983,80.3095714 C14.7592767,80.424034 14.5877148,80.481585 14.4351443,80.481585 Z" id="Shape"></path>
                            <path d="M70.1570357,70.2773095 C70.118893,70.2773095 70.0805908,70.2773095 70.0234567,70.2582857 C69.6037284,70.1817109 69.3175789,69.7996361 69.3940238,69.3793537 C70.8437623,60.5128197 70.6911919,51.5126395 68.8980102,42.6270816 L68.821725,42.2258231 C66.2082377,30.378466 54.5527165,22.7348912 42.6300374,25.142602 C30.8217861,27.5311293 23.0767606,38.9009728 25.0416638,50.7101224 L25.0606553,50.7101224 L25.2132258,51.4552483 C25.8236672,54.4362313 25.9572462,57.4744456 25.6329542,60.4747721 C25.5948115,60.8950544 25.2132258,61.2007143 24.793657,61.1626667 C24.3739287,61.1244592 24.0686282,60.7422245 24.1067708,60.3217823 C24.3929202,57.723034 24.2974839,55.105102 23.8397725,52.5253776 L23.8206214,52.5253776 L23.6680509,51.7802517 C21.0737148,38.8817891 29.4481732,26.2509388 42.3245772,23.6520306 C55.2009813,21.0531224 67.7913956,29.441983 70.4048829,42.3402857 L70.5003192,42.8371429 C72.2362071,51.7417245 72.3697861,60.7612483 70.9200475,69.6468061 C70.8436027,70.010017 70.5193107,70.2773095 70.1570357,70.2773095 Z" id="Shape"></path>
                            <path d="M63.5755993,90.9338095 C63.4610119,90.9338095 63.346584,90.9147857 63.2513073,90.8575544 C62.8697216,90.666517 62.7171511,90.2078673 62.9080238,89.8446565 C64.9871952,85.5642993 66.6661087,81.0927449 67.8868319,76.506568 C68.0014194,76.1053095 68.4209881,75.8570408 68.8215654,75.9716633 C69.2221426,76.0862857 69.4699898,76.506568 69.3557216,76.9079864 C68.1156876,81.5702585 66.3989508,86.1564354 64.2814771,90.5132075 C64.128747,90.7811395 63.8617487,90.9338095 63.5755993,90.9338095 Z" id="Shape"></path>
                            <path d="M71.5876231,86.9210646 C71.4921868,86.9210646 71.39691,86.9020408 71.3204652,86.8639932 C70.9198879,86.7110034 70.7291749,86.2716973 70.8817453,85.870119 C76.2612903,71.8060884 77.5394669,56.5384422 74.6016876,41.7099422 L74.563545,41.4805374 C73.7622309,37.4676327 72.1407708,33.7797313 69.7562988,30.4930884 C69.508292,30.1492211 69.5847368,29.6713878 69.9280204,29.423119 C70.2713039,29.1746905 70.748326,29.2511054 70.9961732,29.5951327 C73.45709,32.9773741 75.1356842,36.7800578 76.0134431,40.8884014 L76.0705772,41.1750374 C79.1227844,56.3474048 77.8256163,71.9972857 72.3314839,86.4053435 C72.1982241,86.7298673 71.8929236,86.9210646 71.5876231,86.9210646 Z" id="Shape"></path>
                            <path d="M65.3114873,25.4866293 C65.1399253,25.4866293 64.9682037,25.4292381 64.8346248,25.3146156 C58.2914907,19.9451054 49.7834533,17.8240306 41.4852801,19.5054796 C39.3486553,19.9451054 37.2693243,20.6138163 35.3235722,21.511932 C34.9419864,21.6839456 34.484275,21.511932 34.3125535,21.1296973 C34.1409915,20.7474626 34.3125535,20.2889728 34.6941392,20.1169592 C36.7543192,19.1614524 38.9480781,18.454534 41.1992903,17.9958844 C49.9361834,16.2378605 58.9020917,18.4735578 65.8076604,24.1298639 C66.1317929,24.3973163 66.1892462,24.8751497 65.9220883,25.1999932 C65.7502071,25.3910306 65.5405025,25.4866293 65.3114873,25.4866293 Z" id="Shape"></path>
                            <path d="M10.6007742,76.1439966 C10.3717589,76.1439966 10.1620543,76.048398 10.0093243,75.8573605 C9.74232598,75.5323571 9.7994601,75.0546837 10.1237521,74.7870714 C16.4571817,69.6851735 19.5093888,61.6595238 18.1930696,53.6912653 L18.0404992,52.9269558 C15.8467402,42.0729932 19.8145297,31.0091293 28.3988523,24.0344252 C28.7231443,23.7669728 29.2001664,23.8242041 29.4671647,24.1490476 C29.734163,24.4738912 29.6768693,24.9515646 29.3525772,25.2191769 C21.4168387,31.6778401 17.6397623,41.8055408 19.3756503,51.8566667 L19.3948014,51.8566667 L19.5473718,52.6209762 C21.321562,61.4109354 18.0784822,70.3538844 11.0774771,75.9910068 C10.9440577,76.0864456 10.7724958,76.1439966 10.6007742,76.1439966 Z" id="Shape"></path>
                            <path d="M7.35785399,71.3475986 C7.14798981,71.3475986 6.91913413,71.252 6.76640407,71.0801463 C6.49940577,70.7551429 6.53754839,70.2774694 6.86184041,70.010017 C11.3447946,66.2074932 13.4814194,60.3027585 12.4893922,54.5319898 L12.3749643,54.0543163 C12.0125297,52.2197177 11.783674,50.3280476 11.7072292,48.4555612 C11.6882377,48.035119 12.0125297,47.6722279 12.4320985,47.6528844 C12.8516672,47.6337007 13.2142615,47.9587041 13.233253,48.3789864 C13.2905467,49.9841803 13.4812598,51.5893741 13.7674092,53.1562007 L13.9008285,53.7294728 C15.1979966,60.2073197 12.8898098,66.8763639 7.85370798,71.1567211 C7.70113752,71.2902075 7.52941596,71.3475986 7.35785399,71.3475986 Z" id="Shape"></path>
                            <path d="M81.7362716,45.4552347 C81.373837,45.4552347 81.0303939,45.1877823 80.9732598,44.8055476 C80.7825467,43.4869898 80.5535314,42.1494082 80.2863735,40.8118265 L80.1909372,40.3531769 C76.5092971,22.0469966 58.6347742,10.161432 40.3406825,13.8493333 C33.5303905,15.2251224 27.3878336,18.6073639 22.5997385,23.6138231 C17.9450628,28.5056599 14.8547131,34.6012721 13.6911239,41.2703163 C13.6146791,41.6905986 13.233253,41.9582109 12.8135246,41.9008197 C12.3937963,41.8244048 12.126798,41.4421701 12.1839321,41.0217279 C13.3858234,34.0662075 16.6095925,27.6837993 21.4932835,22.5627177 C26.4912428,17.3270136 32.9009576,13.7917823 40.035382,12.358602 C58.9590662,8.53689456 77.4440306,20.6900714 81.5455586,39.492949 L81.6599864,40.0662211 C81.9651273,41.5567925 82.2322852,43.0854116 82.4419898,44.5950068 C82.4992835,45.0152891 82.2131341,45.3975238 81.7935654,45.454915 C81.7935654,45.4552347 81.7552632,45.4552347 81.7362716,45.4552347 Z" id="Shape"></path>
                            <path d="M79.7713684,80.3479388 C79.7142343,80.3479388 79.6379491,80.3479388 79.5806553,80.3285952 C79.1800781,80.2139728 78.9322309,79.7936905 79.0464992,79.3925918 C81.4309711,70.4496429 82.3277216,61.2392415 81.7554228,52.0096565 C81.7364312,51.5893741 82.0415722,51.2263231 82.4613005,51.2071395 C82.8810289,51.1879558 83.2433039,51.4937755 83.2626146,51.9140578 C83.8539049,61.3156565 82.9191715,70.6788878 80.4965569,79.7746667 C80.400961,80.137398 80.0956604,80.3479388 79.7713684,80.3479388 Z" id="Shape"></path>
                            <path d="M4.62993888,65.9779286 C4.43922581,65.9779286 4.26750424,65.9015136 4.11477419,65.7678673 C3.80947368,65.4812313 3.79048217,65.0035578 4.07663158,64.6787143 C6.34683531,62.2326361 7.35785399,58.8505544 6.82369779,55.5635918 L6.74725297,55.1813571 C4.57264516,44.4233129 6.70926995,33.4358639 12.7945331,24.2636701 C18.8797963,15.1105 28.1510051,8.86205782 38.9100951,6.68359184 C43.4310323,5.76629252 48.0094228,5.61346259 52.5496706,6.22494218 C52.9692394,6.28233333 53.2553888,6.66456803 53.1980951,7.08485034 C53.140961,7.50529252 52.7593752,7.79192857 52.3396469,7.73453741 C47.9902716,7.14208163 43.5646112,7.29491156 39.215236,8.1740034 C28.8568829,10.2758946 19.909966,16.276068 14.0727097,25.1043946 C8.33073005,33.7607075 6.23224788,44.1176531 8.13985739,54.3216088 L8.25428523,54.8758571 C9.03628862,58.7551156 7.89185059,62.8059082 5.2020781,65.7104762 C5.04950764,65.9015136 4.83964346,65.9779286 4.62993888,65.9779286 Z" id="Shape"></path>
                            <path d="M87.7260985,69.5321837 C87.6879559,69.5321837 87.6689643,69.5321837 87.6306621,69.5321837 C87.2109338,69.4749524 86.9247844,69.0927177 86.962927,68.6722755 C88.1646587,59.0606156 87.8213752,49.3531973 85.9519083,39.7799048 L85.8374805,39.2258163 C82.9949779,25.142602 72.7510526,13.6774796 59.0924856,9.28234014 C58.6917487,9.14869388 58.4630526,8.7282517 58.596472,8.32683333 C58.7300509,7.92557483 59.1497793,7.69632993 59.5503565,7.83013605 C73.5333752,12.3207143 84.0634499,23.9388265 87.1919423,38.2703095 L87.3255212,38.9199966 C89.3285671,48.8374762 89.7099932,58.9076259 88.4701188,68.8634728 C88.4319762,69.2455476 88.1076842,69.5321837 87.7260985,69.5321837 Z" id="Shape"></path>
                        </g>
                    </g>
                </g>
            </g>
        </g>
    </g>
</svg>