<?xml version="1.0" encoding="utf-8"?>
<!-- Generator: Adobe Illustrator 16.0.0, SVG Export Plug-In . SVG Version: 6.00 Build 0)  -->
<!DOCTYPE svg PUBLIC "-//W3C//DTD SVG 1.1//EN" "http://www.w3.org/Graphics/SVG/1.1/DTD/svg11.dtd">
<svg version="1.1" id="Layer_1" xmlns="http://www.w3.org/2000/svg" xmlns:xlink="http://www.w3.org/1999/xlink" x="0px" y="0px"
	 width="80px" height="80px" viewBox="0 0 80 80" enable-background="new 0 0 80 80" xml:space="preserve">
<g id="Face-ID">
	<g>
		<g>
			<g id="Corners">
				<g id="Corner">
					<path fill="#FFFFFF" d="M4.114,21.943v-8.915c0-5.035,3.879-8.914,8.915-8.914h8.914C23.079,4.114,24,3.193,24,2.057
						S23.079,0,21.943,0h-8.914C5.721,0,0,5.721,0,13.028v8.915C0,23.079,0.921,24,2.057,24S4.114,23.079,4.114,21.943z"/>
				</g>
				
					<g id="Corner_1_" transform="translate(68.070175, 11.929825) scale(-1, 1) translate(-68.070175, -11.929825) translate(56.140351, 0.000000)">
					<path fill="#FFFFFF" d="M4.114,21.943v-8.915c0-5.035,3.879-8.914,8.915-8.914h8.914C23.079,4.114,24,3.193,24,2.057
						S23.079,0,21.943,0h-8.914C5.721,0,0,5.721,0,13.028v8.915C0,23.079,0.921,24,2.057,24C3.193,24,4.114,23.079,4.114,21.943z"/>
				</g>
				
					<g id="Corner_2_" transform="translate(11.929825, 68.070175) scale(1, -1) translate(-11.929825, -68.070175) translate(0.000000, 56.140351)">
					<path fill="#FFFFFF" d="M4.114,21.943v-8.915c0-5.035,3.879-8.914,8.915-8.914h8.914C23.079,4.114,24,3.193,24,2.057
						C24,0.921,23.079,0,21.943,0h-8.914C5.721,0,0,5.721,0,13.028v8.915C0,23.079,0.921,24,2.057,24S4.114,23.079,4.114,21.943z"/>
				</g>
				
					<g id="Corner_3_" transform="translate(68.070175, 68.070175) scale(-1, -1) translate(-68.070175, -68.070175) translate(56.140351, 56.140351)">
					<path fill="#FFFFFF" d="M4.114,21.943v-8.915c0-5.035,3.879-8.914,8.915-8.914h8.914C23.079,4.114,24,3.193,24,2.057
						C24,0.921,23.079,0,21.943,0h-8.914C5.721,0,0,5.721,0,13.028v8.915C0,23.079,0.921,24,2.057,24
						C3.193,24,4.114,23.079,4.114,21.943z"/>
				</g>
			</g>
			<g id="Eye" transform="translate(21.754386, 28.070175)">
				<path id="Path" fill="#FFFFFF" d="M0,2.143V7.86c0,1.184,0.896,2.143,2,2.143S4,9.044,4,7.86V2.143C4,0.96,3.104,0,2,0
					S0,0.96,0,2.143z"/>
			</g>
			<g id="Eye_1_" transform="translate(54.736842, 28.070175)">
				<path id="Path_1_" fill="#FFFFFF" d="M-0.001,2.143V7.86c0,1.184,0.896,2.143,2,2.143c1.105,0,2-0.959,2-2.143V2.143
					C3.999,0.96,3.105,0,1.999,0C0.896,0-0.001,0.96-0.001,2.143z"/>
			</g>
			<path id="Mouth" fill="#FFFFFF" d="M25.932,59.083c3.901,3.642,8.626,5.479,14.068,5.479c5.441,0,10.167-1.837,14.068-5.479
				c0.85-0.794,0.896-2.126,0.102-2.976c-0.793-0.85-2.125-0.896-2.975-0.103c-3.117,2.909-6.813,4.347-11.195,4.347
				c-4.382,0-8.079-1.438-11.195-4.347c-0.85-0.794-2.182-0.747-2.975,0.103C25.036,56.957,25.082,58.289,25.932,59.083z"/>
			<path id="Nose" fill="#FFFFFF" d="M40,30.175v14.737c0,0.943-0.461,1.404-1.409,1.404h-1.398c-1.163,0-2.105,0.941-2.105,2.104
				s0.942,2.105,2.105,2.105h1.398c3.272,0,5.62-2.345,5.62-5.614V30.175c0-1.163-0.943-2.105-2.105-2.105
				C40.942,28.07,40,29.013,40,30.175z"/>
		</g>
	</g>
</g>
</svg>
