<?xml version="1.0" encoding="UTF-8"?>
<svg width="80px" height="80px" viewBox="0 0 80 80" version="1.1" xmlns="http://www.w3.org/2000/svg" xmlns:xlink="http://www.w3.org/1999/xlink">
    <!-- Generator: Sketch 50.2 (55047) - http://www.bohemiancoding.com/sketch -->
    <title>icon-face-id-blue</title>
    <desc>Created with Sketch.</desc>
    <defs></defs>
    <g id="ADHOC-Mobile" stroke="none" stroke-width="1" fill="none" fill-rule="evenodd">
        <g id="Artboard-8" transform="translate(-1413.000000, -2244.000000)" fill="#1976D2" fill-rule="nonzero">
            <g id="icon-face-id-blue" transform="translate(1413.000000, 2244.000000)">
                <g id="Corners">
                    <g id="Corner">
                        <path d="M4.11428571,21.9428571 L4.11428571,13.0285714 C4.11428571,7.99327149 7.99327149,4.11428571 13.0285714,4.11428571 L21.9428571,4.11428571 C23.0789858,4.11428571 24,3.19327149 24,2.05714286 C24,0.921014229 23.0789858,0 21.9428571,0 L13.0285714,0 C5.72101423,0 0,5.72101423 0,13.0285714 L0,21.9428571 C0,23.0789858 0.921014229,24 2.05714286,24 C3.19327149,24 4.11428571,23.0789858 4.11428571,21.9428571 Z" id="Shape"></path>
                    </g>
                    <g id="Corner" transform="translate(67.999999, 12.000000) scale(-1, 1) translate(-67.999999, -12.000000) translate(55.999999, 0.000000)">
                        <path d="M4.11428571,21.9428571 L4.11428571,13.0285714 C4.11428571,7.99327149 7.99327149,4.11428571 13.0285714,4.11428571 L21.9428571,4.11428571 C23.0789858,4.11428571 24,3.19327149 24,2.05714286 C24,0.921014229 23.0789858,0 21.9428571,0 L13.0285714,0 C5.72101423,0 0,5.72101423 0,13.0285714 L0,21.9428571 C0,23.0789858 0.921014229,24 2.05714286,24 C3.19327149,24 4.11428571,23.0789858 4.11428571,21.9428571 Z" id="Shape"></path>
                    </g>
                    <g id="Corner" transform="translate(12.000000, 67.999999) scale(-1, 1) rotate(-180.000000) translate(-12.000000, -67.999999) translate(0.000000, 55.999999)">
                        <path d="M4.11428571,21.9428571 L4.11428571,13.0285714 C4.11428571,7.99327149 7.99327149,4.11428571 13.0285714,4.11428571 L21.9428571,4.11428571 C23.0789858,4.11428571 24,3.19327149 24,2.05714286 C24,0.921014229 23.0789858,0 21.9428571,0 L13.0285714,0 C5.72101423,0 0,5.72101423 0,13.0285714 L0,21.9428571 C0,23.0789858 0.921014229,24 2.05714286,24 C3.19327149,24 4.11428571,23.0789858 4.11428571,21.9428571 Z" id="Shape"></path>
                    </g>
                    <g id="Corner" transform="translate(67.999999, 67.999999) rotate(180.000000) translate(-67.999999, -67.999999) translate(55.999999, 55.999999)">
                        <path d="M4.11428571,21.9428571 L4.11428571,13.0285714 C4.11428571,7.99327149 7.99327149,4.11428571 13.0285714,4.11428571 L21.9428571,4.11428571 C23.0789858,4.11428571 24,3.19327149 24,2.05714286 C24,0.921014229 23.0789858,0 21.9428571,0 L13.0285714,0 C5.72101423,0 0,5.72101423 0,13.0285714 L0,21.9428571 C0,23.0789858 0.921014229,24 2.05714286,24 C3.19327149,24 4.11428571,23.0789858 4.11428571,21.9428571 Z" id="Shape"></path>
                    </g>
                </g>
                <g id="Eye" transform="translate(22.000000, 28.000000)">
                    <path d="M0,2.14285714 L0,7.86037654 C0,9.04384386 0.8954305,10.0032337 2,10.0032337 C3.1045695,10.0032337 4,9.04384386 4,7.86037654 L4,2.14285714 C4,0.959389822 3.1045695,0 2,0 C0.8954305,0 0,0.959389822 0,2.14285714 Z" id="Path"></path>
                </g>
                <g id="Eye" transform="translate(55.000000, 28.000000)">
                    <path d="M0,2.14285714 L0,7.86037654 C0,9.04384386 0.8954305,10.0032337 2,10.0032337 C3.1045695,10.0032337 4,9.04384386 4,7.86037654 L4,2.14285714 C4,0.959389822 3.1045695,0 2,0 C0.8954305,0 0,0.959389822 0,2.14285714 Z" id="Path"></path>
                </g>
                <path d="M25.6580624,58.5952733 C29.4965128,62.1873286 34.1453382,64 39.5,64 C44.8546618,64 49.5034872,62.1873286 53.3419376,58.5952733 C54.1782778,57.8126188 54.223477,56.4983661 53.4428929,55.6598077 C52.6623086,54.8212493 51.3515323,54.7759303 50.5151921,55.5585847 C47.4488842,58.4280624 43.8119997,59.8461574 39.5,59.8461574 C35.1880003,59.8461574 31.5511158,58.4280624 28.4848079,55.5585847 C27.6484677,54.7759303 26.3376914,54.8212493 25.5571071,55.6598077 C24.776523,56.4983661 24.8217222,57.8126188 25.6580624,58.5952733 Z" id="Mouth"></path>
                <path d="M39.8461539,30.0625 L39.8461539,44.5 C39.8461539,45.4239328 39.3914011,45.875 38.4563886,45.875 L37.0769231,45.875 C35.9298701,45.875 35,46.7984127 35,47.9375 C35,49.0765873 35.9298701,50 37.0769231,50 L38.4563886,50 C41.6844208,50 44,47.7031874 44,44.5 L44,30.0625 C44,28.9234128 43.0701299,28 41.923077,28 C40.776024,28 39.8461539,28.9234128 39.8461539,30.0625 Z" id="Nose"></path>
            </g>
        </g>
    </g>
</svg>