<?xml version="1.0" encoding="UTF-8"?>
<svg width="171px" height="171px" viewBox="0 0 171 171" version="1.1" xmlns="http://www.w3.org/2000/svg" xmlns:xlink="http://www.w3.org/1999/xlink">
    <!-- Generator: sketchtool 51.3 (57544) - http://www.bohemiancoding.com/sketch -->
    <title>F45A9CE2-5013-4439-A50A-82BB41775B4C</title>
    <desc>Created with sketchtool.</desc>
    <defs>
        <circle id="path-1" cx="85.5" cy="85.5" r="85.5"></circle>
        <rect id="path-3" x="0" y="37.0206186" width="332.786423" height="160.655514" rx="4.76661617"></rect>
        <filter x="-3.5%" y="-5.9%" width="106.9%" height="114.3%" filterUnits="objectBoundingBox" id="filter-4">
            <feOffset dx="0" dy="2" in="SourceAlpha" result="shadowOffsetOuter1"></feOffset>
            <feGaussianBlur stdDeviation="3.5" in="shadowOffsetOuter1" result="shadowBlurOuter1"></feGaussianBlur>
            <feColorMatrix values="0 0 0 0 0.878431373   0 0 0 0 0.894117647   0 0 0 0 0.909803922  0 0 0 0.600939764 0" type="matrix" in="shadowBlurOuter1"></feColorMatrix>
        </filter>
        <path d="M4.76661617,0.64860922 L328.019807,0.64860922 C330.652336,0.64860922 332.786423,2.78269597 332.786423,5.41522539 L332.786423,173.64433 L0,173.64433 L8.8817842e-16,5.41522539 C5.65786547e-16,2.78269597 2.13408675,0.64860922 4.76661617,0.64860922 Z" id="path-5"></path>
        <filter x="-9.8%" y="-17.6%" width="119.5%" height="137.6%" filterUnits="objectBoundingBox" id="filter-6">
            <feOffset dx="0" dy="2" in="SourceAlpha" result="shadowOffsetOuter1"></feOffset>
            <feGaussianBlur stdDeviation="10.5" in="shadowOffsetOuter1" result="shadowBlurOuter1"></feGaussianBlur>
            <feColorMatrix values="0 0 0 0 0.850980392   0 0 0 0 0.866666667   0 0 0 0 0.894117647  0 0 0 0.546563632 0" type="matrix" in="shadowBlurOuter1"></feColorMatrix>
        </filter>
        <path d="M206.530507,45.7130195 C206.16966,45.6786773 205.808813,45.6443351 205.430782,45.627164 C200.207088,45.6443351 194.983394,45.6500588 189.7597,45.6443351 C188.436593,45.6443351 181.133731,45.6443351 172.81706,45.627164 C170.669159,45.7301906 169.105487,45.8503883 168.555625,45.953415 C152.764259,48.7179627 142.093489,64.2406409 144.825619,80.0552278 C147.385916,94.9082329 159.345427,105.056355 174.432281,105.142211 C178.5047,105.159382 182.57712,105.090698 186.649539,105.193724 C187.602825,105.225873 188.524574,105.542875 189.295753,106.103793 C193.488455,109.366303 197.578058,112.783352 201.77076,116.045862 C203.214149,117.161984 204.812187,118.175079 206.478958,118.827581 C209.589118,120.029558 212.235331,118.673041 213.317873,115.479216 C213.713815,114.302538 213.950746,113.078294 214.022385,111.838942 C214.142667,109.4865 214.15985,107.116888 214.073934,104.747276 C214.022385,103.476614 214.400415,102.78977 215.586056,102.188781 C227.18472,96.2819212 233.267574,85.3439279 232.270948,72.3797443 C231.20559,58.6772031 220.177409,46.9836812 206.530507,45.7130195 Z" id="path-7"></path>
        <filter x="-35.2%" y="-39.4%" width="170.5%" height="184.2%" filterUnits="objectBoundingBox" id="filter-8">
            <feOffset dx="0" dy="2" in="SourceAlpha" result="shadowOffsetOuter1"></feOffset>
            <feGaussianBlur stdDeviation="10" in="shadowOffsetOuter1" result="shadowBlurOuter1"></feGaussianBlur>
            <feColorMatrix values="0 0 0 0 0.603921569   0 0 0 0 0.670588235   0 0 0 0 0.784313725  0 0 0 0.28 0" type="matrix" in="shadowBlurOuter1"></feColorMatrix>
        </filter>
    </defs>
    <g id="IntroToCommunityFeatures" stroke="none" stroke-width="1" fill="none" fill-rule="evenodd">
        <g id="newCRF05" transform="translate(-635.000000, -236.000000)">
            <g id="conversation" transform="translate(635.000000, 236.000000)">
                <mask id="mask-2" fill="white">
                    <use xlink:href="#path-1"></use>
                </mask>
                <g id="Mask"></g>
                <g id="groups" mask="url(#mask-2)">
                    <g transform="translate(-74.041237, -1.762887)">
                        <g id="Rectangle-Copy-2" stroke="none" fill="none">
                            <use fill="black" fill-opacity="1" filter="url(#filter-4)" xlink:href="#path-3"></use>
                            <use fill="#FFFFFF" fill-rule="evenodd" xlink:href="#path-3"></use>
                        </g>
                        <path d="M4.76661617,37.0206186 L328.019807,37.0206186 C330.652336,37.0206186 332.786423,39.1547053 332.786423,41.7872347 L332.786423,124.998638 L0,124.998638 L8.8817842e-16,41.7872347 C5.65786547e-16,39.1547053 2.13408675,37.0206186 4.76661617,37.0206186 Z" id="Rectangle-Copy-5" stroke="none" fill="#C6E2D4" fill-rule="evenodd"></path>
                        <g id="Rectangle-Copy-5" stroke="none" fill="none">
                            <use fill="black" fill-opacity="1" filter="url(#filter-6)" xlink:href="#path-5"></use>
                            <use fill="#D1EBFA" fill-rule="evenodd" xlink:href="#path-5"></use>
                        </g>
                        <path d="M109.445254,58.1446962 C109.825071,58.110354 110.204888,58.0760118 110.602791,58.0588407 C116.10109,58.0760118 121.599389,58.0817355 127.097688,58.0760118 C128.49035,58.0760118 136.177117,58.0760118 144.930988,58.0588407 C147.191801,58.1618673 148.837674,58.282065 149.416442,58.3850917 C166.037945,61.1496394 177.269668,76.6723176 174.393913,92.4869045 C171.699023,107.33991 159.110812,117.488032 143.230856,117.573888 C138.944353,117.591059 134.65785,117.522374 130.371347,117.625401 C129.367948,117.65755 128.397743,117.974552 127.586024,118.53547 C123.172916,121.797979 118.868326,125.215029 114.455218,128.477539 C112.935951,129.593661 111.253905,130.606756 109.499514,131.259258 C106.225855,132.461235 103.440533,131.104718 102.301083,127.910892 C101.884327,126.734215 101.634941,125.509971 101.559536,124.270618 C101.43293,121.918177 101.414844,119.548565 101.505276,117.178952 C101.559536,115.908291 101.161632,115.221446 99.9136632,114.620458 C87.7052687,108.713598 81.302644,97.7756046 82.3516616,84.811421 C83.4730252,71.1088799 95.0809476,59.4153579 109.445254,58.1446962 Z" id="Shape-Copy-3" stroke="none" fill="#FFFFFF" fill-rule="nonzero"></path>
                        <path d="M100.887838,79.5752042 L156.352242,79.5752042" id="Line-4-Copy-3" stroke="#CEDEF0" stroke-width="2.8599697" fill="none" stroke-linecap="round"></path>
                        <path d="M100.887838,89.1380325 L156.352242,89.1380325" id="Line-4-Copy-4" stroke="#CEDEF0" stroke-width="2.8599697" fill="none" stroke-linecap="round"></path>
                        <path d="M100.887838,98.7008607 L136.270302,98.7008607" id="Line-4-Copy-5" stroke="#CEDEF0" stroke-width="2.8599697" fill="none" stroke-linecap="round"></path>
                        <g id="Shape-Copy-4" stroke="none" fill="none" fill-rule="nonzero">
                            <use fill="black" fill-opacity="1" filter="url(#filter-8)" xlink:href="#path-7"></use>
                            <use fill="#FFFFFF" xlink:href="#path-7"></use>
                        </g>
                        <path d="M188.474453,92.3649635 C178.823579,92.3649635 171,84.5413846 171,74.8905109 C171,65.2396373 178.823579,57.4160584 188.474453,57.4160584 C198.125326,57.4160584 205.948905,65.2396373 205.948905,74.8905109 C205.948905,84.5413846 198.125326,92.3649635 188.474453,92.3649635 Z M186.234412,77.5699757 L182.31672,73.6522841 C181.726625,73.0621892 180.769892,73.0621892 180.179797,73.6522841 C179.589703,74.242379 179.589703,75.1991119 180.179797,75.7892068 L185.16595,80.7753596 C185.756045,81.3654546 186.712778,81.3654546 187.302873,80.7753596 L195.850564,72.227669 C196.440659,71.6375741 196.440659,70.6808413 195.850564,70.0907464 C195.260469,69.5006515 194.303736,69.5006515 193.713641,70.0907464 L186.234412,77.5699757 Z" id="Shape" stroke="none" fill="#32CE80" fill-rule="nonzero"></path>
                    </g>
                </g>
            </g>
        </g>
    </g>
</svg>