<?xml version="1.0" encoding="UTF-8"?>
<svg width="213px" height="213px" viewBox="0 0 213 213" version="1.1" xmlns="http://www.w3.org/2000/svg" xmlns:xlink="http://www.w3.org/1999/xlink">
    <!-- Generator: sketchtool 51.3 (57544) - http://www.bohemiancoding.com/sketch -->
    <title>BFAC9C36-A3CE-4A2D-AB60-56304CCB48DF</title>
    <desc>Created with sketchtool.</desc>
    <defs>
        <circle id="path-1" cx="85.5" cy="85.5" r="85.5"></circle>
        <filter x="-19.3%" y="-17.5%" width="138.6%" height="138.6%" filterUnits="objectBoundingBox" id="filter-2">
            <feOffset dx="0" dy="3" in="SourceAlpha" result="shadowOffsetOuter1"></feOffset>
            <feGaussianBlur stdDeviation="10.5" in="shadowOffsetOuter1" result="shadowBlurOuter1"></feGaussianBlur>
            <feColorMatrix values="0 0 0 0 0.850980392   0 0 0 0 0.866666667   0 0 0 0 0.894117647  0 0 0 0.546563632 0" type="matrix" in="shadowBlurOuter1"></feColorMatrix>
        </filter>
    </defs>
    <g id="IntroToCommunityFeatures" stroke="none" stroke-width="1" fill="none" fill-rule="evenodd">
        <g id="newCRF04" transform="translate(-613.000000, -218.000000)">
            <g id="stethoscope-copy-2" transform="translate(634.000000, 236.000000)">
                <g id="Oval-7-Copy-3">
                    <use fill="black" fill-opacity="1" filter="url(#filter-2)" xlink:href="#path-1"></use>
                    <use fill="#D1EBFA" fill-rule="evenodd" xlink:href="#path-1"></use>
                </g>
                <g id="stethoscope-copy" transform="translate(45.376701, 16.500619)">
                    <path d="M38.081599,80.3369157 C46.7829404,80.3008804 56.2658387,71.440022 61.6579726,64.0540349 C72.1271011,49.7137292 76.8048634,31.8558037 65.4925635,16.6804608 C63.6484543,14.2066058 61.4153519,11.683134 58.707902,9.26964412" id="Oval" stroke="#FFFFFF" stroke-width="6.07016521"></path>
                    <path d="M38.081599,80.3369157 C28.8606521,80.3008804 18.8114772,71.440022 13.097349,64.0540349 C0.218718639,47.4073314 -4.48468239,26.6892968 16.2235847,9.26964412" id="Oval" stroke="#FFFFFF" stroke-width="6.07016521"></path>
                    <ellipse id="Oval-2" fill="#2079D1" cx="20.0700319" cy="6.69474297" rx="6.69001063" ry="6.69474297"></ellipse>
                    <ellipse id="Oval-2-Copy" fill="#2079D1" cx="56.0931661" cy="6.69474297" rx="6.69001063" ry="6.69474297"></ellipse>
                    <path d="M38.2749229,141.104583 C57.0810087,132.257849 61.8246927,113.37044 57.7473113,97.7419277 C53.66993,82.113415 40.5080096,77.7227326 33.9844233,81.7401257 C26.8926568,86.1074188 25.7306662,95.7717409 31.3219375,105.249372 C33.3550098,108.695584 37.1093224,112.527614 43.0966438,117.258807 C49.3608438,122.208791 62.7845708,128.984626 83.3678248,137.586314" id="Oval-4" stroke="#FFFFFF" stroke-width="5.96187988" transform="translate(55.578550, 110.720749) rotate(121.000000) translate(-55.578550, -110.720749) "></path>
                    <path d="M37.7488103,84.4567575 C52.0972317,84.4567575 65.183988,72.3718179 70.506098,60.7775362 C73.0944696,55.1387372 65.1627072,50.6338108 62.0611586,55.8875472 C57.5116247,63.5940367 48.1399705,74.288698 38.1940877,74.5506545 C28.1569094,74.8153208 17.7154752,64.7055191 13.4870354,56.8914601 C10.1101511,50.651056 2.47226563,54.7348062 4.43444537,60.7775362 C10.3027426,71.998318 23.4003889,84.4567575 37.7488103,84.4567575 Z" id="Fill-10" fill="#2079D1"></path>
                    <ellipse id="Oval-5" fill="#2079D1" cx="12.8654051" cy="125.140196" rx="12.8654051" ry="12.8745057"></ellipse>
                    <ellipse id="Oval-5-Copy" fill="#FFFFFF" cx="12.8654051" cy="125.140196" rx="9.77770785" ry="9.78462435"></ellipse>
                    <ellipse id="Oval-5-Copy-2" fill="#2079D1" cx="12.8654051" cy="125.140196" rx="6.69001063" ry="6.69474297"></ellipse>
                </g>
                <path d="M97.8402062,53.2139912 C97.8402062,48.2275405 94.0636244,44.0721649 89.2932053,44.0721649 C86.1129258,44.0721649 83.5289488,45.7343152 81.9388091,48.4353093 C80.1499019,45.3187776 76.3733201,43.4488586 72.3979709,44.4877025 C69.4164589,45.3187776 67.0312494,47.8120029 66.434947,50.9285346 C65.4411096,54.4606038 66.8324819,57.7849043 69.018924,59.862592 L80.9449718,72.3287187 C81.1437393,72.7442563 81.5412742,73.1597938 81.9388091,73.1597938 C82.5351115,73.1597938 82.733879,72.7442563 83.1314139,72.3287187 L94.8586942,59.862592 C96.6476014,58.2004418 97.8402062,55.7072165 97.8402062,53.2139912 Z" id="Shape" fill="#A33FB9" fill-rule="nonzero"></path>
            </g>
        </g>
    </g>
</svg>