<?xml version="1.0" encoding="UTF-8"?>
<svg width="267px" height="267px" viewBox="0 0 267 267" version="1.1" xmlns="http://www.w3.org/2000/svg" xmlns:xlink="http://www.w3.org/1999/xlink">
    <!-- Generator: sketchtool 51.3 (57544) - http://www.bohemiancoding.com/sketch -->
    <title>06B1DB83-E26D-4CBA-A3B7-F50CD0B53379</title>
    <desc>Created with sketchtool.</desc>
    <defs>
        <filter x="-44.7%" y="-43.0%" width="189.5%" height="189.5%" filterUnits="objectBoundingBox" id="filter-1">
            <feOffset dx="0" dy="3" in="SourceAlpha" result="shadowOffsetOuter1"></feOffset>
            <feGaussianBlur stdDeviation="25" in="shadowOffsetOuter1" result="shadowBlurOuter1"></feGaussianBlur>
            <feColorMatrix values="0 0 0 0 0.850980392   0 0 0 0 0.882352941   0 0 0 0 0.929411765  0 0 0 0.52 0" type="matrix" in="shadowBlurOuter1" result="shadowMatrixOuter1"></feColorMatrix>
            <feMerge>
                <feMergeNode in="shadowMatrixOuter1"></feMergeNode>
                <feMergeNode in="SourceGraphic"></feMergeNode>
            </feMerge>
        </filter>
        <circle id="path-2" cx="85.5" cy="85.5" r="85.5"></circle>
        <rect id="path-4" x="-5.68434189e-14" y="0" width="286.517704" height="211.218962" rx="5.7199394"></rect>
        <filter x="-4.7%" y="-5.0%" width="109.4%" height="112.8%" filterUnits="objectBoundingBox" id="filter-5">
            <feOffset dx="0" dy="3" in="SourceAlpha" result="shadowOffsetOuter1"></feOffset>
            <feGaussianBlur stdDeviation="4" in="shadowOffsetOuter1" result="shadowBlurOuter1"></feGaussianBlur>
            <feColorMatrix values="0 0 0 0 0.878431373   0 0 0 0 0.894117647   0 0 0 0 0.909803922  0 0 0 0.6 0" type="matrix" in="shadowBlurOuter1"></feColorMatrix>
        </filter>
        <path d="M5.7199394,0 L280.797764,8.8817842e-16 C283.956799,-3.05557838e-14 286.517704,2.5609041 286.517704,5.7199394 L286.517704,195.847644 L-5.68434189e-14,195.847644 L-5.59552404e-14,5.7199394 C-5.63421107e-14,2.5609041 2.5609041,1.47911601e-14 5.7199394,1.42108547e-14 Z" id="path-6"></path>
        <filter x="-26.7%" y="-37.5%" width="153.4%" height="178.1%" filterUnits="objectBoundingBox" id="filter-7">
            <feOffset dx="0" dy="3" in="SourceAlpha" result="shadowOffsetOuter1"></feOffset>
            <feGaussianBlur stdDeviation="25" in="shadowOffsetOuter1" result="shadowBlurOuter1"></feGaussianBlur>
            <feColorMatrix values="0 0 0 0 0.850980392   0 0 0 0 0.882352941   0 0 0 0 0.929411765  0 0 0 0.52 0" type="matrix" in="shadowBlurOuter1"></feColorMatrix>
        </filter>
        <path d="M80.8057778,46.3845786 L156.946673,46.3845786 C160.074118,46.3845786 162.609413,48.9198736 162.609413,52.0473186 L162.609413,154.09886 C162.609413,157.226305 160.074118,159.7616 156.946673,159.7616 C127.800349,159.7616 98.654024,159.7616 69.5076994,159.7616 C72.8370125,157.612989 74.7154586,153.557865 75.1430378,147.59623 L75.1430378,52.0473186 C75.1430378,48.9198736 77.6783328,46.3845786 80.8057778,46.3845786 Z" id="path-8"></path>
        <filter x="-33.8%" y="-25.1%" width="167.7%" height="155.6%" filterUnits="objectBoundingBox" id="filter-9">
            <feOffset dx="0" dy="3" in="SourceAlpha" result="shadowOffsetOuter1"></feOffset>
            <feGaussianBlur stdDeviation="10" in="shadowOffsetOuter1" result="shadowBlurOuter1"></feGaussianBlur>
            <feColorMatrix values="0 0 0 0 0.22410939   0 0 0 0 0.374011111   0 0 0 0 0.597310799  0 0 0 0.26488904 0" type="matrix" in="shadowBlurOuter1"></feColorMatrix>
        </filter>
    </defs>
    <g id="IntroToCommunityFeatures" stroke="none" stroke-width="1" fill="none" fill-rule="evenodd">
        <g id="newCRF03" transform="translate(-587.000000, -191.000000)">
            <g id="research-briefs-card-copy" filter="url(#filter-1)" transform="translate(635.000000, 236.000000)">
                <mask id="mask-3" fill="white">
                    <use xlink:href="#path-2"></use>
                </mask>
                <use id="Mask" fill="#D8D8D8" xlink:href="#path-2"></use>
                <g id="research-briefs-card" mask="url(#mask-3)">
                    <g transform="translate(-47.430657, -9.985401)">
                        <g id="Rectangle-Copy">
                            <use fill="black" fill-opacity="1" filter="url(#filter-5)" xlink:href="#path-4"></use>
                            <use fill="#FFFFFF" fill-rule="evenodd" xlink:href="#path-4"></use>
                        </g>
                        <g id="Rectangle-Copy-3">
                            <use fill="black" fill-opacity="1" filter="url(#filter-7)" xlink:href="#path-6"></use>
                            <use fill="#D1EBFA" fill-rule="evenodd" xlink:href="#path-6"></use>
                        </g>
                        <g id="researchGraphic" stroke-width="1" fill-rule="evenodd" transform="translate(19.110377, 35.338125)">
                            <path d="M126.008646,7.03540709 L111.97962,7.03540709" id="Line-2-Copy" stroke="#1976D2" stroke-width="2.48386863" stroke-linecap="round"></path>
                            <ellipse id="Oval" fill="#A33FB9" cx="150.964444" cy="24.9139502" rx="8.28987862" ry="8.28034426"></ellipse>
                            <ellipse id="Oval-Copy-2" fill="#19ABE2" cx="179.624737" cy="69.5004193" rx="8.28987862" ry="8.28034426"></ellipse>
                            <ellipse id="Oval-Copy-4" fill="#76C19B" cx="238.842063" cy="73.6761029" rx="7.65219565" ry="7.6433947"></ellipse>
                            <ellipse id="Oval-Copy-3" fill="#FBCB72" cx="5.73914674" cy="71.7652543" rx="5.73914674" ry="5.73254602"></ellipse>
                            <g id="Rectangle-42">
                                <use fill="black" fill-opacity="1" filter="url(#filter-9)" xlink:href="#path-8"></use>
                                <use fill="#FFFFFF" fill-rule="evenodd" xlink:href="#path-8"></use>
                            </g>
                            <path d="M80.5354284,45.6503224 L113.856201,45.6503224 C108.979321,58.9664174 104.445516,67.0472073 100.254786,69.8926922 C96.0640551,72.7381771 87.603356,75.2557813 74.8726884,77.4455047 L74.8726884,51.3130624 C74.8726884,48.1856174 77.4079835,45.6503224 80.5354284,45.6503224 Z" id="Rectangle-42-Copy-2" fill="#71BE9A"></path>
                            <path d="M89.6242482,71.7652543 L145.74035,71.7652543" id="Line" stroke="#CEDEF0" stroke-width="3.29468514" stroke-linecap="round"></path>
                            <path d="M89.6242482,85.7582052 L145.74035,85.7582052" id="Line-Copy-3" stroke="#CEDEF0" stroke-width="3.29468514" stroke-linecap="round"></path>
                            <path d="M89.6242482,113.744107 L145.74035,113.744107" id="Line-Copy-4" stroke="#CEDEF0" stroke-width="3.29468514" stroke-linecap="round"></path>
                            <path d="M89.6242482,99.7511562 L145.74035,99.7511562" id="Line-Copy" stroke="#CEDEF0" stroke-width="3.29468514" stroke-linecap="round"></path>
                            <path d="M89.6242482,127.737058 L145.74035,127.737058" id="Line-Copy-2" stroke="#CEDEF0" stroke-width="3.29468514" stroke-linecap="round"></path>
                            <path d="M118.994133,0.02896195 L118.994133,14.0418522" id="Line-2" stroke="#1976D2" stroke-width="2.48386863" stroke-linecap="round"></path>
                            <g id="magnify" transform="translate(28.433874, 13.802844)">
                                <rect id="Rectangle-37" fill="#1976D2" transform="translate(21.043538, 70.701401) rotate(-46.000000) translate(-21.043538, -70.701401) " x="-2.55073188" y="64.9688549" width="47.1885398" height="11.465092" rx="5.73254602"></rect>
                                <path d="M56.7537844,68.7905523 C38.7924728,68.7905523 24.2319529,54.2467787 24.2319529,36.3061248 C24.2319529,18.3654709 38.7924728,3.82169735 56.7537844,3.82169735 C74.715096,3.82169735 89.2756159,18.3654709 89.2756159,36.3061248 C89.2756159,54.2467787 74.715096,68.7905523 56.7537844,68.7905523 Z M56.7537844,60.8813004 C70.3419071,60.8813004 81.3572569,49.8786195 81.3572569,36.3061248 C81.3572569,22.7336301 70.3419071,11.7309493 56.7537844,11.7309493 C43.1656617,11.7309493 32.1503119,22.7336301 32.1503119,36.3061248 C32.1503119,49.8786195 43.1656617,60.8813004 56.7537844,60.8813004 Z" id="Combined-Shape-Copy" fill="#1976D2"></path>
                                <path d="M52.9276866,64.9688549 C34.966375,64.9688549 20.4058551,50.4250814 20.4058551,32.4844275 C20.4058551,14.5437736 34.966375,0 52.9276866,0 C70.8889981,0 85.4495181,14.5437736 85.4495181,32.4844275 C85.4495181,50.4250814 70.8889981,64.9688549 52.9276866,64.9688549 Z M52.9276866,57.059603 C66.5158092,57.059603 77.5311591,46.0569222 77.5311591,32.4844275 C77.5311591,18.9119328 66.5158092,7.90925191 52.9276866,7.90925191 C39.3395639,7.90925191 28.324214,18.9119328 28.324214,32.4844275 C28.324214,46.0569222 39.3395639,57.059603 52.9276866,57.059603 Z" id="Combined-Shape" fill="#7CB3EA"></path>
                                <ellipse id="Oval-21" fill="#FFFFFF" opacity="0.284873188" cx="63.1306141" cy="32.4844275" rx="9.56524456" ry="9.55424337"></ellipse>
                            </g>
                        </g>
                    </g>
                </g>
            </g>
        </g>
    </g>
</svg>