<?xml version="1.0" encoding="UTF-8"?>
<svg width="188px" height="188px" viewBox="0 0 188 188" version="1.1" xmlns="http://www.w3.org/2000/svg" xmlns:xlink="http://www.w3.org/1999/xlink">
    <!-- Generator: Sketch 51.3 (57544) - http://www.bohemiancoding.com/sketch -->
    <title>research briefs</title>
    <desc>Created with Sketch.</desc>
    <defs>
        <filter x="-44.6%" y="-42.9%" width="189.2%" height="189.2%" filterUnits="objectBoundingBox" id="filter-1">
            <feOffset dx="0" dy="2" in="SourceAlpha" result="shadowOffsetOuter1"></feOffset>
            <feGaussianBlur stdDeviation="17.5" in="shadowOffsetOuter1" result="shadowBlurOuter1"></feGaussianBlur>
            <feColorMatrix values="0 0 0 0 0.850980392   0 0 0 0 0.882352941   0 0 0 0 0.929411765  0 0 0 0.52 0" type="matrix" in="shadowBlurOuter1" result="shadowMatrixOuter1"></feColorMatrix>
            <feMerge>
                <feMergeNode in="shadowMatrixOuter1"></feMergeNode>
                <feMergeNode in="SourceGraphic"></feMergeNode>
            </feMerge>
        </filter>
        <circle id="path-2" cx="60" cy="60" r="60"></circle>
        <rect id="path-4" x="-5.68434189e-14" y="0" width="201.065055" height="148.223833" rx="4.01399256"></rect>
        <filter x="-5.0%" y="-5.4%" width="109.9%" height="113.5%" filterUnits="objectBoundingBox" id="filter-5">
            <feOffset dx="0" dy="2" in="SourceAlpha" result="shadowOffsetOuter1"></feOffset>
            <feGaussianBlur stdDeviation="3" in="shadowOffsetOuter1" result="shadowBlurOuter1"></feGaussianBlur>
            <feColorMatrix values="0 0 0 0 0.878431373   0 0 0 0 0.894117647   0 0 0 0 0.909803922  0 0 0 0.6 0" type="matrix" in="shadowBlurOuter1"></feColorMatrix>
        </filter>
        <path d="M4.01399256,0 L197.051063,0 C199.267929,-4.07231839e-16 201.065055,1.79712568 201.065055,4.01399256 L201.065055,137.436943 L-5.68434189e-14,137.436943 L-5.68434189e-14,4.01399256 C-5.71149068e-14,1.79712568 1.79712568,1.10653729e-14 4.01399256,1.0658141e-14 Z" id="path-6"></path>
        <filter x="-26.6%" y="-37.5%" width="153.2%" height="177.9%" filterUnits="objectBoundingBox" id="filter-7">
            <feOffset dx="0" dy="2" in="SourceAlpha" result="shadowOffsetOuter1"></feOffset>
            <feGaussianBlur stdDeviation="17.5" in="shadowOffsetOuter1" result="shadowBlurOuter1"></feGaussianBlur>
            <feColorMatrix values="0 0 0 0 0.850980392   0 0 0 0 0.882352941   0 0 0 0 0.929411765  0 0 0 0.52 0" type="matrix" in="shadowBlurOuter1"></feColorMatrix>
        </filter>
        <path d="M56.705809,32.5505814 L110.138016,32.5505814 C112.332714,32.5505814 114.111869,34.3297359 114.111869,36.5244341 L114.111869,108.139551 C114.111869,110.334249 112.332714,112.113403 110.138016,112.113403 C89.6844551,112.113403 69.230894,112.113403 48.7773329,112.113403 C51.113693,110.605606 52.4319008,107.759906 52.7319563,103.576301 L52.7319563,36.5244341 C52.7319563,34.3297359 54.5111108,32.5505814 56.705809,32.5505814 Z" id="path-8"></path>
        <filter x="-33.7%" y="-25.1%" width="167.3%" height="155.3%" filterUnits="objectBoundingBox" id="filter-9">
            <feOffset dx="0" dy="2" in="SourceAlpha" result="shadowOffsetOuter1"></feOffset>
            <feGaussianBlur stdDeviation="7" in="shadowOffsetOuter1" result="shadowBlurOuter1"></feGaussianBlur>
            <feColorMatrix values="0 0 0 0 0.22410939   0 0 0 0 0.374011111   0 0 0 0 0.597310799  0 0 0 0.26488904 0" type="matrix" in="shadowBlurOuter1"></feColorMatrix>
        </filter>
    </defs>
    <g id="Benefits-Intro-and-Review" stroke="none" stroke-width="1" fill="none" fill-rule="evenodd">
        <g id="benefitsMobileIntro-04-Copy-2" transform="translate(-66.000000, -99.000000)">
            <g id="research-briefs" filter="url(#filter-1)" transform="translate(100.000000, 131.000000)">
                <mask id="mask-3" fill="white">
                    <use xlink:href="#path-2"></use>
                </mask>
                <use id="Mask" fill="#D8D8D8" xlink:href="#path-2"></use>
                <g id="research-briefs-card" mask="url(#mask-3)">
                    <g transform="translate(-33.284672, -7.007299)">
                        <g id="Rectangle-Copy">
                            <use fill="black" fill-opacity="1" filter="url(#filter-5)" xlink:href="#path-4"></use>
                            <use fill="#FFFFFF" fill-rule="evenodd" xlink:href="#path-4"></use>
                        </g>
                        <g id="Rectangle-Copy-3">
                            <use fill="black" fill-opacity="1" filter="url(#filter-7)" xlink:href="#path-6"></use>
                            <use fill="#D1EBFA" fill-rule="evenodd" xlink:href="#path-6"></use>
                        </g>
                        <g id="researchGraphic" stroke-width="1" fill-rule="evenodd" transform="translate(13.410791, 24.798684)">
                            <path d="M88.4271199,4.93712778 L78.5821898,4.93712778" id="Line-2-Copy" stroke="#1976D2" stroke-width="1.7430657" stroke-linecap="round"></path>
                            <ellipse id="Oval" fill="#A33FB9" cx="105.939961" cy="17.4834738" rx="5.81745868" ry="5.8107679"></ellipse>
                            <ellipse id="Oval-Copy-2" fill="#19ABE2" cx="126.052447" cy="48.7722241" rx="5.81745868" ry="5.8107679"></ellipse>
                            <ellipse id="Oval-Copy-4" fill="#76C19B" cx="167.608465" cy="51.7025284" rx="5.36996186" ry="5.36378575"></ellipse>
                            <ellipse id="Oval-Copy-3" fill="#FBCB72" cx="4.02747139" cy="50.3615819" rx="4.02747139" ry="4.02283932"></ellipse>
                            <g id="Rectangle-42">
                                <use fill="black" fill-opacity="1" filter="url(#filter-9)" xlink:href="#path-8"></use>
                                <use fill="#FFFFFF" fill-rule="evenodd" xlink:href="#path-8"></use>
                            </g>
                            <path d="M56.5160901,32.0353139 L79.8990885,32.0353139 C76.4767168,41.379942 73.2950992,47.0506718 70.3542356,49.0475033 C67.413372,51.0443348 61.4760393,52.8110746 52.5422375,54.3477226 L52.5422375,36.0091666 C52.5422375,33.8144684 54.3213919,32.0353139 56.5160901,32.0353139 Z" id="Rectangle-42-Copy-2" fill="#71BE9A"></path>
                            <path d="M62.8942092,50.3615819 L102.27393,50.3615819" id="Line" stroke="#CEDEF0" stroke-width="2.31205975" stroke-linecap="round"></path>
                            <path d="M62.8942092,60.1811967 L102.27393,60.1811967" id="Line-Copy-3" stroke="#CEDEF0" stroke-width="2.31205975" stroke-linecap="round"></path>
                            <path d="M62.8942092,79.8204261 L102.27393,79.8204261" id="Line-Copy-4" stroke="#CEDEF0" stroke-width="2.31205975" stroke-linecap="round"></path>
                            <path d="M62.8942092,70.0008114 L102.27393,70.0008114" id="Line-Copy" stroke="#CEDEF0" stroke-width="2.31205975" stroke-linecap="round"></path>
                            <path d="M62.8942092,89.6400409 L102.27393,89.6400409" id="Line-Copy-2" stroke="#CEDEF0" stroke-width="2.31205975" stroke-linecap="round"></path>
                            <path d="M83.5046549,0.0203241754 L83.5046549,9.85393139" id="Line-2" stroke="#1976D2" stroke-width="1.7430657" stroke-linecap="round"></path>
                            <g id="magnify" transform="translate(19.953596, 9.686207)">
                                <rect id="Rectangle-37" fill="#1976D2" transform="translate(14.767395, 49.615018) rotate(-46.000000) translate(-14.767395, -49.615018) " x="-1.78998729" y="45.5921789" width="33.1147648" height="8.04567863" rx="4.02283932"></rect>
                                <path d="M39.8272171,48.2740718 C27.2227879,48.2740718 17.0048792,38.0679149 17.0048792,25.4779823 C17.0048792,12.8880498 27.2227879,2.68189288 39.8272171,2.68189288 C52.4316463,2.68189288 62.649555,12.8880498 62.649555,25.4779823 C62.649555,38.0679149 52.4316463,48.2740718 39.8272171,48.2740718 Z M39.8272171,42.7237196 C49.3627418,42.7237196 57.0928119,35.00254 57.0928119,25.4779823 C57.0928119,15.9534247 49.3627418,8.23224509 39.8272171,8.23224509 C30.2916924,8.23224509 22.5616224,15.9534247 22.5616224,25.4779823 C22.5616224,35.00254 30.2916924,42.7237196 39.8272171,42.7237196 Z" id="Combined-Shape-Copy" fill="#1976D2"></path>
                                <path d="M37.1422362,45.5921789 C24.537807,45.5921789 14.3198983,35.386022 14.3198983,22.7960895 C14.3198983,10.2061569 24.537807,0 37.1422362,0 C49.7466654,0 59.9645741,10.2061569 59.9645741,22.7960895 C59.9645741,35.386022 49.7466654,45.5921789 37.1422362,45.5921789 Z M37.1422362,40.0418267 C46.6777609,40.0418267 54.4078309,32.3206471 54.4078309,22.7960895 C54.4078309,13.2715318 46.6777609,5.55035221 37.1422362,5.55035221 C27.6067115,5.55035221 19.8766414,13.2715318 19.8766414,22.7960895 C19.8766414,32.3206471 27.6067115,40.0418267 37.1422362,40.0418267 Z" id="Combined-Shape" fill="#7CB3EA"></path>
                                <ellipse id="Oval-21" fill="#FFFFFF" opacity="0.284873188" cx="44.3021853" cy="22.7960895" rx="6.71245232" ry="6.70473219"></ellipse>
                            </g>
                        </g>
                    </g>
                </g>
            </g>
        </g>
    </g>
</svg>