<?xml version="1.0" encoding="utf-8"?>
<!-- Generator: Adobe Illustrator 16.0.0, SVG Export Plug-In . SVG Version: 6.00 Build 0)  -->
<!DOCTYPE svg PUBLIC "-//W3C//DTD SVG 1.1//EN" "http://www.w3.org/Graphics/SVG/1.1/DTD/svg11.dtd">
<svg version="1.1" id="Layer_1" xmlns="http://www.w3.org/2000/svg" xmlns:xlink="http://www.w3.org/1999/xlink" x="0px" y="0px"
	 width="640px" height="100px" viewBox="-315 388.5 640 100" enable-background="new -315 388.5 640 100" xml:space="preserve">
<title>adhocLogo</title>
<desc>Created with Sketch.</desc>
<g id="Symbols">
	<g id="adhocLogo">
		<g>
			<path id="ADHOC" fill="#FFFFFF" d="M-202.621,486.842h-22.236l-8.84-21.683h-40.884l-8.838,21.683h-21.686l41.435-97.375h19.614
				L-202.621,486.842z M-241.293,446.371l-12.845-31.355l-12.845,31.355H-241.293z M-76.746,438.498
				c0,27.212-20.994,48.344-51.379,48.344h-37.708v-96.684h37.708c30.386,0,51.379,20.856,51.379,48.063V438.498z M-98.981,438.778
				v-0.28c0-17.126-11.741-29.142-29.144-29.142h-16.436v58.287h16.436C-110.722,467.644-98.981,455.902-98.981,438.778z
				 M45.813,486.842v-96.684H24.542v38.257h-39.223v-38.257h-21.27v96.684h21.27v-38.813h39.223v38.813H45.813z M189.37,438.498
				c0,27.487-21.683,50.002-51.521,50.002s-51.238-22.239-51.238-49.722v-0.28c0-27.483,21.683-49.998,51.514-49.998
				c29.832,0,51.245,22.233,51.245,49.722V438.498z M167.131,438.778v-0.28c0-16.575-12.156-30.384-29.281-30.384
				s-29.006,13.534-29.006,30.107v0.276c0,16.579,12.157,30.388,29.281,30.388C155.255,468.886,167.131,455.346,167.131,438.778z
				 M315.104,471.234l-13.534-13.673c-7.598,6.901-14.364,11.324-25.414,11.324c-16.579,0-28.039-13.809-28.039-30.388v-0.276
				c0-16.573,11.741-30.107,28.039-30.107c9.667,0,17.266,4.143,24.724,10.909l13.539-15.607
				c-8.98-8.84-19.896-14.916-38.127-14.916c-29.697,0-50.414,22.515-50.414,49.998v0.28c0,27.763,21.132,49.722,49.587,49.722
				C294.107,488.5,305.162,481.868,315.104,471.234z"/>
		</g>
	</g>
</g>
</svg>
