<?xml version="1.0" encoding="utf-8"?>
<!-- Generator: Adobe Illustrator 18.1.1, SVG Export Plug-In . SVG Version: 6.00 Build 0)  -->
<!DOCTYPE svg PUBLIC "-//W3C//DTD SVG 1.1//EN" "http://www.w3.org/Graphics/SVG/1.1/DTD/svg11.dtd">
<svg version="1.1" id="Layer_1" xmlns="http://www.w3.org/2000/svg" xmlns:xlink="http://www.w3.org/1999/xlink" x="0px" y="0px"
	 viewBox="0 0 800 800" enable-background="new 0 0 800 800" xml:space="preserve">
<g>
	<g>
		<g>
			<path fill="#D7D7D7" d="M101.468,337.141c-25.994,0-47.131,21.137-47.131,47.141V698.52c0,26.004,21.137,47.131,47.131,47.131
				h597.064c25.994,0,47.131-21.127,47.131-47.131V384.281c0-26.004-21.137-47.141-47.131-47.141H101.468z M698.532,777.075H101.468
				c-43.32,0-78.555-35.235-78.555-78.555V384.281c0-43.33,35.235-78.565,78.555-78.565h597.064
				c43.32,0,78.555,35.235,78.555,78.565V698.52C777.086,741.84,741.852,777.075,698.532,777.075z"/>
			<path fill="#D7D7D7" d="M258.598,494.26c-26.004,0-47.141,21.137-47.141,47.141c0,26.004,21.137,47.131,47.141,47.131
				c25.994,0,47.131-21.127,47.131-47.131C305.728,515.437,284.591,494.26,258.598,494.26z M258.598,619.955
				c-43.33,0-78.565-35.235-78.565-78.555c0-43.33,35.235-78.565,78.565-78.565c43.32,0,78.555,35.235,78.555,78.565
				C337.152,584.72,301.917,619.955,258.598,619.955z"/>
			<path fill="#D7D7D7" d="M258.598,399.988c-77.971,0-141.412,63.441-141.412,141.412c0,77.961,63.441,141.402,141.412,141.402
				c77.961,0,141.402-63.441,141.402-141.402C400,463.429,336.559,399.988,258.598,399.988z M258.598,714.227
				c-95.297,0-172.836-77.539-172.836-172.826c0-95.297,77.539-172.836,172.836-172.836c95.287,0,172.826,77.539,172.826,172.836
				C431.424,636.688,353.885,714.227,258.598,714.227z"/>
			<path fill="#D7D7D7" d="M698.532,494.26H478.555c-8.678,0-15.707-7.029-15.707-15.707c0-8.688,7.029-15.717,15.707-15.717
				h219.977c8.678,0,15.707,7.029,15.707,15.717C714.239,487.231,707.21,494.26,698.532,494.26z"/>
			<path fill="#D7D7D7" d="M698.532,557.108H478.555c-8.678,0-15.707-7.029-15.707-15.707c0-8.688,7.029-15.717,15.707-15.717
				h219.977c8.678,0,15.707,7.029,15.707,15.717C714.239,550.079,707.21,557.108,698.532,557.108z"/>
			<path fill="#D7D7D7" d="M698.532,619.955H478.555c-8.678,0-15.707-7.029-15.707-15.707c0-8.688,7.029-15.717,15.707-15.717
				h219.977c8.678,0,15.707,7.029,15.707,15.717C714.239,612.927,707.21,619.955,698.532,619.955z"/>
			<path fill="#D7D7D7" d="M698.532,682.803H478.555c-8.678,0-15.707-7.029-15.707-15.707c0-8.688,7.029-15.717,15.707-15.717
				h219.977c8.678,0,15.707,7.029,15.707,15.717C714.239,675.774,707.21,682.803,698.532,682.803z"/>
			<path fill="#D7D7D7" d="M101.468,337.141c-4.163,0-8.326-1.649-11.383-4.907c-5.933-6.285-5.702-16.26,0.623-22.233
				L389.24,27.186c6.325-5.893,16.26-5.661,22.233,0.623c5.923,6.285,5.691,16.27-0.634,22.233L112.318,332.857
				C109.251,335.693,105.32,337.141,101.468,337.141z"/>
			<path fill="#D7D7D7" d="M698.532,337.141c-8.688,0-15.717-7.029-15.717-15.707V290.01c0-26.004-21.137-47.141-47.131-47.141
				H321.445c-26.004,0-47.141,21.137-47.141,47.141v31.424c0,8.678-7.029,15.707-15.707,15.707c-8.688,0-15.717-7.029-15.717-15.707
				V290.01c0-43.33,35.235-78.565,78.565-78.565h314.239c43.32,0,78.555,35.235,78.555,78.565v31.424
				C714.239,330.112,707.21,337.141,698.532,337.141z"/>
			<path fill="#D7D7D7" d="M541.402,431.412c-4.083,0-8.165-1.569-11.031-4.435c-3.147-3.147-4.676-7.19-4.676-11.272
				c0-4.093,1.569-8.175,4.676-11.041c5.973-5.933,16.381-5.933,21.992,0c3.188,2.866,4.716,6.948,4.716,11.041
				c0,4.083-1.569,8.165-4.716,10.991C549.578,429.844,545.495,431.412,541.402,431.412z"/>
			<path fill="#D7D7D7" d="M478.555,431.412c-4.083,0-8.165-1.569-11.031-4.435c-3.147-3.147-4.676-7.19-4.676-11.272
				c0-4.093,1.569-8.175,4.676-11.041c5.973-5.933,16.059-5.933,21.992-0.312c3.188,3.178,4.716,7.22,4.716,11.313
				c0,4.083-1.569,8.165-4.716,10.991C486.73,429.844,482.647,431.412,478.555,431.412z"/>
		</g>
	</g>
	<defs>
		<filter id="Adobe_OpacityMaskFilter" filterUnits="userSpaceOnUse" x="22.914" y="22.925" width="754.173" height="754.15">
			
				<feColorMatrix  type="matrix" values="-1 0 0 0 1  0 -1 0 0 1  0 0 -1 0 1  0 0 0 1 0" color-interpolation-filters="sRGB" result="source"/>
		</filter>
	</defs>
	<mask maskUnits="userSpaceOnUse" x="22.914" y="22.925" width="754.173" height="754.15" id="SVGID_1_">
		<g filter="url(#Adobe_OpacityMaskFilter)">
			
				<image overflow="visible" width="3160" height="3159" xlink:href="44CB677F79989698.jpg"  transform="matrix(0.24 0 0 0.24 20.9136 20.9252)">
			</image>
		</g>
	</mask>
	<g opacity="0.75" mask="url(#SVGID_1_)">
		<g>
			<path fill="#919091" d="M101.468,337.141c-25.994,0-47.131,21.137-47.131,47.141V698.52c0,26.004,21.137,47.131,47.131,47.131
				h597.064c25.994,0,47.131-21.127,47.131-47.131V384.281c0-26.004-21.137-47.141-47.131-47.141H101.468z M698.532,777.075H101.468
				c-43.32,0-78.555-35.235-78.555-78.555V384.281c0-43.33,35.235-78.565,78.555-78.565h597.064
				c43.32,0,78.555,35.235,78.555,78.565V698.52C777.086,741.84,741.852,777.075,698.532,777.075z"/>
			<path fill="#919091" d="M258.598,494.26c-26.004,0-47.141,21.137-47.141,47.141c0,26.004,21.137,47.131,47.141,47.131
				c25.994,0,47.131-21.127,47.131-47.131C305.728,515.437,284.591,494.26,258.598,494.26z M258.598,619.955
				c-43.33,0-78.565-35.235-78.565-78.555c0-43.33,35.235-78.565,78.565-78.565c43.32,0,78.555,35.235,78.555,78.565
				C337.152,584.72,301.917,619.955,258.598,619.955z"/>
			<path fill="#919091" d="M258.598,399.988c-77.971,0-141.412,63.441-141.412,141.412c0,77.961,63.441,141.402,141.412,141.402
				c77.961,0,141.402-63.441,141.402-141.402C400,463.429,336.559,399.988,258.598,399.988z M258.598,714.227
				c-95.297,0-172.836-77.539-172.836-172.826c0-95.297,77.539-172.836,172.836-172.836c95.287,0,172.826,77.539,172.826,172.836
				C431.424,636.688,353.885,714.227,258.598,714.227z"/>
			<path fill="#919091" d="M698.532,494.26H478.555c-8.678,0-15.707-7.029-15.707-15.707c0-8.688,7.029-15.717,15.707-15.717
				h219.977c8.678,0,15.707,7.029,15.707,15.717C714.239,487.231,707.21,494.26,698.532,494.26z"/>
			<path fill="#919091" d="M698.532,557.108H478.555c-8.678,0-15.707-7.029-15.707-15.707c0-8.688,7.029-15.717,15.707-15.717
				h219.977c8.678,0,15.707,7.029,15.707,15.717C714.239,550.079,707.21,557.108,698.532,557.108z"/>
			<path fill="#919091" d="M698.532,619.955H478.555c-8.678,0-15.707-7.029-15.707-15.707c0-8.688,7.029-15.717,15.707-15.717
				h219.977c8.678,0,15.707,7.029,15.707,15.717C714.239,612.927,707.21,619.955,698.532,619.955z"/>
			<path fill="#919091" d="M698.532,682.803H478.555c-8.678,0-15.707-7.029-15.707-15.707c0-8.688,7.029-15.717,15.707-15.717
				h219.977c8.678,0,15.707,7.029,15.707,15.717C714.239,675.774,707.21,682.803,698.532,682.803z"/>
			<path fill="#919091" d="M101.468,337.141c-4.163,0-8.326-1.649-11.383-4.907c-5.933-6.285-5.702-16.26,0.623-22.233
				L389.24,27.186c6.325-5.893,16.26-5.661,22.233,0.623c5.923,6.285,5.691,16.27-0.634,22.233L112.318,332.857
				C109.251,335.693,105.32,337.141,101.468,337.141z"/>
			<path fill="#919091" d="M698.532,337.141c-8.688,0-15.717-7.029-15.717-15.707V290.01c0-26.004-21.137-47.141-47.131-47.141
				H321.445c-26.004,0-47.141,21.137-47.141,47.141v31.424c0,8.678-7.029,15.707-15.707,15.707c-8.688,0-15.717-7.029-15.717-15.707
				V290.01c0-43.33,35.235-78.565,78.565-78.565h314.239c43.32,0,78.555,35.235,78.555,78.565v31.424
				C714.239,330.112,707.21,337.141,698.532,337.141z"/>
			<path fill="#919091" d="M541.402,431.412c-4.083,0-8.165-1.569-11.031-4.435c-3.147-3.147-4.676-7.19-4.676-11.272
				c0-4.093,1.569-8.175,4.676-11.041c5.973-5.933,16.381-5.933,21.992,0c3.188,2.866,4.716,6.948,4.716,11.041
				c0,4.083-1.569,8.165-4.716,10.991C549.578,429.844,545.495,431.412,541.402,431.412z"/>
			<path fill="#919091" d="M478.555,431.412c-4.083,0-8.165-1.569-11.031-4.435c-3.147-3.147-4.676-7.19-4.676-11.272
				c0-4.093,1.569-8.175,4.676-11.041c5.973-5.933,16.059-5.933,21.992-0.312c3.188,3.178,4.716,7.22,4.716,11.313
				c0,4.083-1.569,8.165-4.716,10.991C486.73,429.844,482.647,431.412,478.555,431.412z"/>
		</g>
	</g>
</g>
</svg>
